<?xml version="1.0" encoding="utf-8"?>
<!-- Generator: Adobe Illustrator 24.0.2, SVG Export Plug-In . SVG Version: 6.00 Build 0)  -->
<svg version="1.1" id="图层_1" xmlns="http://www.w3.org/2000/svg" xmlns:xlink="http://www.w3.org/1999/xlink" x="0px" y="0px"
	 viewBox="0 0 504 504" style="enable-background:new 0 0 504 504;" xml:space="preserve">
<style type="text/css">
	.st0{font-family:'ArialMT';}
	.st1{font-size:16px;}
	.st2{letter-spacing:-1;}
	.st3{fill:none;stroke:#000000;stroke-width:0.75;stroke-linecap:round;stroke-linejoin:round;stroke-miterlimit:10;}
	
		.st4{clip-path:url(#SVGID_2_);fill:none;stroke:#A9A9A9;stroke-width:0.75;stroke-linecap:round;stroke-linejoin:round;stroke-miterlimit:10;}
	
		.st5{opacity:0.392;clip-path:url(#SVGID_2_);fill:none;stroke:#4CAECC;stroke-width:3;stroke-linecap:round;stroke-linejoin:round;stroke-miterlimit:10;}
	
		.st6{opacity:0.588;clip-path:url(#SVGID_2_);fill:none;stroke:#FFAA00;stroke-width:1.5;stroke-linecap:round;stroke-linejoin:round;stroke-miterlimit:10;stroke-dasharray:9,6;}
	
		.st7{opacity:0.588;clip-path:url(#SVGID_2_);fill:none;stroke:#FB0007;stroke-width:1.5;stroke-linecap:round;stroke-linejoin:round;stroke-miterlimit:10;stroke-dasharray:1.5,4.5,7.5,4.5;}
	.st8{clip-path:url(#SVGID_2_);}
	.st9{fill:#4CAECC;}
	.st10{font-size:22px;}
	.st11{fill:#FB0007;}
	.st12{fill:#FFAA00;}
</style>
<text transform="matrix(1 0 0 1 175.0898 492.4805)"><tspan x="0" y="0" class="st0 st1">F</tspan><tspan x="8.99" y="0" class="st0 st1">alse </tspan><tspan x="42.79" y="0" class="st0 st1">P</tspan><tspan x="52.67" y="0" class="st0 st1">osti</tspan><tspan x="77.57" y="0" class="st0 st1">v</tspan><tspan x="85.17" y="0" class="st0 st1">e </tspan><tspan x="98.52" y="0" class="st0 st1">P</tspan><tspan x="108.39" y="0" class="st0 st1">ercentage</tspan></text>
<text transform="matrix(-6.123234e-17 -1 1 -6.123234e-17 20.16 320.25)"><tspan x="0" y="0" class="st0 st1 st2">T</tspan><tspan x="7.87" y="0" class="st0 st1">r</tspan><tspan x="13.42" y="0" class="st0 st1">ue </tspan><tspan x="35.66" y="0" class="st0 st1">P</tspan><tspan x="45.54" y="0" class="st0 st1">osti</tspan><tspan x="70.43" y="0" class="st0 st1">v</tspan><tspan x="78.03" y="0" class="st0 st1">e </tspan><tspan x="91.38" y="0" class="st0 st1">P</tspan><tspan x="101.25" y="0" class="st0 st1">ercentage</tspan></text>
<rect x="59.04" y="30.24" class="st3" width="414.72" height="414.72"/>
<line class="st3" x1="458.4" y1="444.96" x2="74.4" y2="444.96"/>
<line class="st3" x1="458.4" y1="444.96" x2="458.4" y2="452.16"/>
<line class="st3" x1="381.6" y1="444.96" x2="381.6" y2="452.16"/>
<line class="st3" x1="304.8" y1="444.96" x2="304.8" y2="452.16"/>
<line class="st3" x1="228" y1="444.96" x2="228" y2="452.16"/>
<line class="st3" x1="151.2" y1="444.96" x2="151.2" y2="452.16"/>
<line class="st3" x1="74.4" y1="444.96" x2="74.4" y2="452.16"/>
<text transform="matrix(1 0 0 1 61.73 470.8799)" class="st0 st1">  0</text>
<text transform="matrix(1 0 0 1 138.8599 470.8799)" class="st0 st1"> 20</text>
<text transform="matrix(1 0 0 1 215.6602 470.8799)" class="st0 st1"> 40</text>
<text transform="matrix(1 0 0 1 292.46 470.8799)" class="st0 st1"> 60</text>
<text transform="matrix(1 0 0 1 369.2598 470.8799)" class="st0 st1"> 80</text>
<text transform="matrix(1 0 0 1 444.3896 470.8799)" class="st0 st1">100</text>
<line class="st3" x1="59.04" y1="429.6" x2="59.04" y2="45.6"/>
<line class="st3" x1="59.04" y1="429.6" x2="51.84" y2="429.6"/>
<line class="st3" x1="59.04" y1="352.8" x2="51.84" y2="352.8"/>
<line class="st3" x1="59.04" y1="276" x2="51.84" y2="276"/>
<line class="st3" x1="59.04" y1="199.2" x2="51.84" y2="199.2"/>
<line class="st3" x1="59.04" y1="122.4" x2="51.84" y2="122.4"/>
<line class="st3" x1="59.04" y1="45.6" x2="51.84" y2="45.6"/>
<text transform="matrix(-6.123234e-17 -1 1 -6.123234e-17 41.7595 443.2705)" class="st0 st1">  0</text>
<text transform="matrix(-6.123234e-17 -1 1 -6.123234e-17 41.7596 368.1406)" class="st0 st1"> 20</text>
<text transform="matrix(-6.123234e-17 -1 1 -6.123234e-17 41.7599 291.3398)" class="st0 st1"> 40</text>
<text transform="matrix(-6.123234e-17 -1 1 -6.123234e-17 41.76 214.54)" class="st0 st1"> 60</text>
<text transform="matrix(-6.123234e-17 -1 1 -6.123234e-17 41.7603 137.7402)" class="st0 st1"> 80</text>
<text transform="matrix(-6.123234e-17 -1 1 -6.123234e-17 41.7599 62.6104)" class="st0 st1">100</text>
<g>
	<defs>
		<rect id="SVGID_1_" x="59.04" y="30.24" width="414.72" height="414.72"/>
	</defs>
	<clipPath id="SVGID_2_">
		<use xlink:href="#SVGID_1_"  style="overflow:visible;"/>
	</clipPath>
	<line class="st4" x1="59.04" y1="444.96" x2="473.76" y2="30.24"/>
	<polyline class="st5" points="458.4,45.6 452.75,45.6 441.46,45.6 435.81,45.6 430.16,45.6 418.87,45.6 413.22,45.6 407.58,45.6 
		396.28,45.6 390.64,45.6 384.99,45.6 379.34,45.6 373.69,45.6 368.05,45.6 362.4,45.6 356.75,45.6 351.11,45.6 345.46,45.6 
		339.81,45.6 334.16,45.6 328.52,45.6 322.87,45.6 317.22,45.6 311.58,45.6 305.93,45.6 300.28,45.6 294.64,45.6 288.99,45.6 
		283.34,45.6 277.69,45.6 272.05,45.6 266.4,45.6 266.4,53.44 260.75,53.44 260.75,61.27 255.11,61.27 249.46,61.27 243.81,61.27 
		238.16,61.27 232.52,61.27 226.87,61.27 221.22,61.27 215.58,61.27 215.58,69.11 209.93,69.11 204.28,69.11 204.28,76.95 
		198.64,76.95 192.99,76.95 192.99,84.78 192.99,92.62 187.34,92.62 187.34,100.46 187.34,108.29 181.69,108.29 176.05,108.29 
		170.4,108.29 170.4,116.13 170.4,123.97 164.75,123.97 159.11,123.97 153.46,123.97 147.81,123.97 142.16,123.97 136.52,123.97 
		130.87,123.97 125.22,123.97 119.58,131.8 119.58,139.64 119.58,147.48 113.93,147.48 113.93,155.31 108.28,155.31 108.28,163.15 
		108.28,170.99 108.28,178.82 102.64,178.82 102.64,186.66 102.64,194.5 102.64,202.33 96.99,202.33 96.99,210.17 96.99,218.01 
		96.99,225.84 96.99,233.68 96.99,241.52 96.99,257.19 96.99,265.03 91.34,265.03 91.34,272.87 91.34,280.7 91.34,288.54 
		91.34,296.38 85.69,304.21 85.69,312.05 85.69,319.89 85.69,335.56 85.69,343.4 85.69,351.23 85.69,359.07 85.69,366.91 
		85.69,382.58 85.69,390.42 85.69,398.25 85.69,406.09 85.69,413.93 85.69,421.76 80.05,421.76 74.4,429.6 	"/>
	<polyline class="st6" points="458.4,45.6 447.43,45.6 436.46,45.6 425.49,45.6 414.51,45.6 403.54,45.6 392.57,45.6 381.6,45.6 
		370.63,45.6 359.66,45.6 348.69,45.6 337.71,45.6 326.74,45.6 315.77,45.6 304.8,45.6 293.83,45.6 282.86,45.6 271.89,45.6 
		260.91,45.6 249.94,45.6 249.94,53.44 249.94,61.27 238.97,61.27 228,61.27 217.03,61.27 217.03,69.11 206.06,69.11 195.09,69.11 
		195.09,76.95 184.11,76.95 184.11,84.78 184.11,92.62 184.11,100.46 184.11,108.29 173.14,108.29 162.17,108.29 162.17,116.13 
		162.17,123.97 151.2,123.97 140.23,123.97 129.26,123.97 129.26,131.8 129.26,139.64 129.26,147.48 118.29,147.48 118.29,155.31 
		107.31,155.31 107.31,163.15 107.31,170.99 107.31,178.82 96.34,178.82 96.34,186.66 96.34,194.5 96.34,202.33 85.37,202.33 
		85.37,210.17 85.37,218.01 85.37,225.84 85.37,233.68 85.37,241.52 85.37,257.19 85.37,265.03 85.37,272.87 85.37,280.7 
		85.37,288.54 85.37,296.38 85.37,304.21 85.37,312.05 85.37,319.89 85.37,335.56 85.37,343.4 85.37,351.23 85.37,359.07 
		85.37,366.91 85.37,382.58 85.37,390.42 85.37,398.25 85.37,406.09 85.37,413.93 85.37,421.76 74.4,421.76 74.4,429.6 	"/>
	<polyline class="st7" points="458.4,45.6 446.01,45.6 433.63,45.6 421.24,45.6 408.85,45.6 396.46,45.6 384.08,45.6 371.69,45.6 
		359.3,45.6 346.92,45.6 334.53,45.6 322.14,45.6 309.75,45.6 297.37,45.6 284.98,45.6 284.98,53.44 272.59,53.44 272.59,61.27 
		260.21,61.27 247.82,61.27 235.43,61.27 223.05,61.27 210.66,61.27 210.66,69.11 210.66,76.95 198.27,76.95 198.27,84.78 
		198.27,92.62 185.88,92.62 185.88,100.46 185.88,108.29 173.5,108.29 173.5,116.13 173.5,123.97 161.11,123.97 148.72,123.97 
		136.34,123.97 123.95,123.97 111.56,131.8 111.56,139.64 111.56,147.48 111.56,155.31 111.56,163.15 111.56,170.99 111.56,178.82 
		111.56,186.66 111.56,194.5 111.56,202.33 111.56,210.17 111.56,218.01 111.56,225.84 111.56,233.68 111.56,241.52 111.56,257.19 
		111.56,265.03 99.17,265.03 99.17,272.87 99.17,280.7 99.17,288.54 99.17,296.38 86.79,304.21 86.79,312.05 86.79,319.89 
		86.79,335.56 86.79,343.4 86.79,351.23 86.79,359.07 86.79,366.91 86.79,382.58 86.79,390.42 86.79,398.25 86.79,406.09 
		86.79,413.93 86.79,421.76 74.4,429.6 	"/>
	<g class="st8">
		<text transform="matrix(1 0 0 1 259.6104 341.5)"><tspan x="0" y="0" class="st9 st0 st10">CRC </tspan><tspan x="53.78" y="0" class="st9 st0 st10 st2">A</tspan><tspan x="67.35" y="0" class="st9 st0 st10">UC = 88.82%</tspan></text>
	</g>
	<g class="st8">
		<text transform="matrix(1 0 0 1 210.6802 379.9004)"><tspan x="0" y="0" class="st11 st0 st10">Late CRC </tspan><tspan x="102.71" y="0" class="st11 st0 st10 st2">A</tspan><tspan x="116.28" y="0" class="st11 st0 st10">UC = 87.59%</tspan></text>
	</g>
	<g class="st8">
		<text transform="matrix(1 0 0 1 203.0498 416.1504)"><tspan x="0" y="0" class="st12 st0 st10">Ea</tspan><tspan x="26.91" y="0" class="st12 st0 st10">r</tspan><tspan x="34.54" y="0" class="st12 st0 st10">ly CRC </tspan><tspan x="110.32" y="0" class="st12 st0 st10 st2">A</tspan><tspan x="123.89" y="0" class="st12 st0 st10">UC = 89.85%</tspan></text>
	</g>
</g>
</svg>
