<?xml version="1.0" encoding="utf-8"?>
<!-- Generator: Adobe Illustrator 24.0.2, SVG Export Plug-In . SVG Version: 6.00 Build 0)  -->
<svg version="1.1" id="图层_1" xmlns="http://www.w3.org/2000/svg" xmlns:xlink="http://www.w3.org/1999/xlink" x="0px" y="0px"
	 viewBox="0 0 504 504" style="enable-background:new 0 0 504 504;" xml:space="preserve">
<style type="text/css">
	.st0{fill:none;stroke:#000000;stroke-width:0.75;stroke-linecap:round;stroke-linejoin:round;stroke-miterlimit:10;}
	
		.st1{clip-path:url(#SVGID_2_);fill:none;stroke:#A9A9A9;stroke-width:0.75;stroke-linecap:round;stroke-linejoin:round;stroke-miterlimit:10;}
	
		.st2{opacity:0.392;clip-path:url(#SVGID_2_);fill:none;stroke:#4CAECC;stroke-width:3;stroke-linecap:round;stroke-linejoin:round;stroke-miterlimit:10;}
	
		.st3{opacity:0.588;clip-path:url(#SVGID_2_);fill:none;stroke:#FFB000;stroke-width:1.5;stroke-linecap:round;stroke-linejoin:round;stroke-miterlimit:10;stroke-dasharray:9,6;}
	
		.st4{opacity:0.588;clip-path:url(#SVGID_2_);fill:none;stroke:#FB0007;stroke-width:1.5;stroke-linecap:round;stroke-linejoin:round;stroke-miterlimit:10;stroke-dasharray:1.5,4.5,7.5,4.5;}
	.st5{clip-path:url(#SVGID_2_);}
	.st6{fill:#4CAECC;}
	.st7{font-family:'ArialMT';}
	.st8{font-size:22px;}
	.st9{letter-spacing:-1;}
	.st10{fill:#FB0007;}
	.st11{fill:#FFB000;}
	.st12{font-size:16px;}
</style>
<rect x="59.04" y="30.24" class="st0" width="414.72" height="414.72"/>
<line class="st0" x1="458.4" y1="444.96" x2="74.4" y2="444.96"/>
<line class="st0" x1="458.4" y1="444.96" x2="458.4" y2="452.16"/>
<line class="st0" x1="381.6" y1="444.96" x2="381.6" y2="452.16"/>
<line class="st0" x1="304.8" y1="444.96" x2="304.8" y2="452.16"/>
<line class="st0" x1="228" y1="444.96" x2="228" y2="452.16"/>
<line class="st0" x1="151.2" y1="444.96" x2="151.2" y2="452.16"/>
<line class="st0" x1="74.4" y1="444.96" x2="74.4" y2="452.16"/>
<line class="st0" x1="59.04" y1="429.6" x2="59.04" y2="45.6"/>
<line class="st0" x1="59.04" y1="429.6" x2="51.84" y2="429.6"/>
<line class="st0" x1="59.04" y1="352.8" x2="51.84" y2="352.8"/>
<line class="st0" x1="59.04" y1="276" x2="51.84" y2="276"/>
<line class="st0" x1="59.04" y1="199.2" x2="51.84" y2="199.2"/>
<line class="st0" x1="59.04" y1="122.4" x2="51.84" y2="122.4"/>
<line class="st0" x1="59.04" y1="45.6" x2="51.84" y2="45.6"/>
<g>
	<defs>
		<rect id="SVGID_1_" x="59.04" y="30.24" width="414.72" height="414.72"/>
	</defs>
	<clipPath id="SVGID_2_">
		<use xlink:href="#SVGID_1_"  style="overflow:visible;"/>
	</clipPath>
	<line class="st1" x1="59.04" y1="444.96" x2="473.76" y2="30.24"/>
	<polyline class="st2" points="458.4,45.6 454.4,45.6 450.4,45.6 446.4,45.6 438.4,45.6 434.4,45.6 430.4,45.6 422.4,45.6 
		418.4,45.6 410.4,45.6 406.4,45.6 402.4,45.6 398.4,45.6 394.4,45.6 390.4,45.6 386.4,45.6 382.4,45.6 378.4,45.6 374.4,45.6 
		370.4,45.6 366.4,45.6 362.4,45.6 358.4,45.6 354.4,45.6 350.4,45.6 346.4,45.6 342.4,45.6 338.4,45.6 334.4,45.6 330.4,45.6 
		326.4,45.6 322.4,45.6 318.4,45.6 310.4,45.6 306.4,45.6 306.4,49.44 306.4,53.28 302.4,53.28 290.4,53.28 286.4,53.28 
		282.4,53.28 278.4,53.28 274.4,53.28 270.4,53.28 266.4,53.28 262.4,57.12 258.4,57.12 250.4,57.12 246.4,57.12 242.4,57.12 
		242.4,60.96 242.4,64.8 238.4,68.64 234.4,68.64 234.4,72.48 230.4,72.48 222.4,72.48 218.4,72.48 214.4,72.48 214.4,76.32 
		210.4,76.32 206.4,76.32 206.4,80.16 206.4,84 202.4,87.84 194.4,87.84 190.4,87.84 190.4,91.68 186.4,91.68 182.4,91.68 
		178.4,95.52 174.4,95.52 170.4,95.52 166.4,95.52 166.4,99.36 162.4,99.36 162.4,103.2 162.4,107.04 162.4,110.88 162.4,114.72 
		158.4,118.56 158.4,122.4 154.4,122.4 154.4,126.24 154.4,130.08 154.4,133.92 154.4,137.76 154.4,141.6 154.4,145.44 
		154.4,149.28 154.4,153.12 150.4,153.12 150.4,156.96 150.4,160.8 146.4,160.8 146.4,168.48 142.4,168.48 142.4,176.16 
		138.4,176.16 134.4,183.84 134.4,187.68 134.4,195.36 134.4,199.2 134.4,203.04 134.4,206.88 134.4,210.72 130.4,210.72 
		130.4,214.56 130.4,218.4 126.4,218.4 122.4,222.24 122.4,226.08 122.4,229.92 122.4,237.6 122.4,241.44 118.4,241.44 
		114.4,249.12 110.4,256.8 110.4,260.64 110.4,264.48 106.4,276 106.4,279.84 106.4,283.68 106.4,287.52 106.4,291.36 106.4,295.2 
		98.4,295.2 98.4,299.04 98.4,302.88 98.4,306.72 98.4,310.56 98.4,314.4 98.4,318.24 98.4,322.08 98.4,325.92 98.4,333.6 
		94.4,337.44 94.4,341.28 94.4,345.12 94.4,348.96 94.4,352.8 94.4,356.64 90.4,360.48 90.4,364.32 90.4,368.16 90.4,372 
		90.4,375.84 90.4,379.68 86.4,383.52 86.4,387.36 86.4,395.04 86.4,398.88 82.4,398.88 78.4,402.72 78.4,406.56 78.4,410.4 
		78.4,414.24 74.4,414.24 74.4,418.08 74.4,421.92 74.4,425.76 74.4,429.6 	"/>
	<polyline class="st3" points="458.4,45.6 451.02,45.6 443.63,45.6 436.25,45.6 428.86,45.6 421.48,45.6 414.09,45.6 406.71,45.6 
		399.32,45.6 391.94,45.6 384.55,45.6 377.17,45.6 369.78,45.6 362.4,45.6 355.02,45.6 347.63,45.6 340.25,45.6 332.86,45.6 
		325.48,45.6 325.48,49.44 325.48,53.28 318.09,53.28 310.71,53.28 303.32,53.28 295.94,57.12 288.55,57.12 273.78,57.12 
		266.4,57.12 266.4,60.96 266.4,64.8 266.4,68.64 259.02,68.64 259.02,72.48 251.63,72.48 244.25,72.48 244.25,76.32 236.86,76.32 
		236.86,80.16 236.86,84 229.48,87.84 222.09,87.84 214.71,87.84 214.71,91.68 207.32,91.68 207.32,95.52 199.94,95.52 
		192.55,95.52 185.17,95.52 185.17,99.36 177.78,99.36 177.78,103.2 177.78,107.04 177.78,110.88 177.78,114.72 170.4,118.56 
		170.4,122.4 163.02,122.4 163.02,126.24 163.02,130.08 163.02,133.92 163.02,137.76 163.02,141.6 163.02,145.44 163.02,149.28 
		163.02,153.12 163.02,156.96 163.02,160.8 155.63,160.8 155.63,168.48 155.63,176.16 148.25,176.16 140.86,183.84 140.86,187.68 
		140.86,195.36 140.86,199.2 140.86,203.04 140.86,206.88 140.86,210.72 140.86,214.56 140.86,218.4 133.48,218.4 133.48,222.24 
		133.48,226.08 133.48,229.92 133.48,237.6 133.48,241.44 126.09,241.44 126.09,249.12 118.71,256.8 118.71,260.64 118.71,264.48 
		118.71,276 118.71,279.84 118.71,283.68 118.71,287.52 118.71,291.36 118.71,295.2 103.94,295.2 103.94,299.04 103.94,302.88 
		103.94,306.72 103.94,310.56 103.94,314.4 103.94,318.24 103.94,322.08 103.94,325.92 103.94,333.6 96.55,337.44 96.55,341.28 
		96.55,345.12 96.55,348.96 96.55,352.8 96.55,356.64 89.17,360.48 89.17,364.32 89.17,368.16 89.17,372 89.17,375.84 89.17,379.68 
		89.17,383.52 89.17,387.36 89.17,395.04 89.17,398.88 81.78,398.88 74.4,402.72 74.4,406.56 74.4,410.4 74.4,414.24 74.4,418.08 
		74.4,421.92 74.4,425.76 74.4,429.6 	"/>
	<polyline class="st4" points="458.4,45.6 449.67,45.6 440.95,45.6 432.22,45.6 423.49,45.6 414.76,45.6 406.04,45.6 397.31,45.6 
		388.58,45.6 379.85,45.6 371.13,45.6 362.4,45.6 353.67,45.6 344.95,45.6 336.22,45.6 327.49,45.6 318.76,45.6 310.04,45.6 
		301.31,45.6 292.58,45.6 283.85,45.6 283.85,49.44 283.85,53.28 275.13,53.28 257.67,53.28 248.95,53.28 240.22,53.28 
		231.49,53.28 222.76,53.28 222.76,57.12 214.04,57.12 214.04,60.96 214.04,64.8 205.31,68.64 205.31,72.48 187.85,72.48 
		179.13,72.48 179.13,76.32 170.4,76.32 170.4,80.16 170.4,84 170.4,87.84 161.67,87.84 161.67,91.68 152.95,91.68 144.22,95.52 
		144.22,99.36 144.22,103.2 144.22,107.04 144.22,110.88 144.22,114.72 144.22,118.56 144.22,122.4 144.22,126.24 144.22,130.08 
		144.22,133.92 144.22,137.76 144.22,141.6 144.22,145.44 144.22,149.28 144.22,153.12 135.49,153.12 135.49,156.96 135.49,160.8 
		135.49,168.48 126.76,168.48 126.76,176.16 126.76,183.84 126.76,187.68 126.76,195.36 126.76,199.2 126.76,203.04 126.76,206.88 
		126.76,210.72 118.04,210.72 118.04,214.56 118.04,218.4 109.31,222.24 109.31,226.08 109.31,229.92 109.31,237.6 109.31,241.44 
		100.58,249.12 100.58,256.8 100.58,260.64 100.58,264.48 91.85,276 91.85,279.84 91.85,283.68 91.85,287.52 91.85,291.36 
		91.85,295.2 91.85,299.04 91.85,302.88 91.85,306.72 91.85,310.56 91.85,314.4 91.85,318.24 91.85,322.08 91.85,325.92 
		91.85,333.6 91.85,337.44 91.85,341.28 91.85,345.12 91.85,348.96 91.85,352.8 91.85,356.64 91.85,360.48 91.85,364.32 
		91.85,368.16 91.85,372 91.85,375.84 91.85,379.68 83.13,383.52 83.13,387.36 83.13,395.04 83.13,398.88 83.13,402.72 
		83.13,406.56 83.13,410.4 83.13,414.24 74.4,414.24 74.4,418.08 74.4,421.92 74.4,425.76 74.4,429.6 	"/>
	<g class="st5">
		<text transform="matrix(1 0 0 1 259.6104 341.5)"><tspan x="0" y="0" class="st6 st7 st8">CRC </tspan><tspan x="53.78" y="0" class="st6 st7 st8 st9">A</tspan><tspan x="67.35" y="0" class="st6 st7 st8">UC = 85.06%</tspan></text>
	</g>
	<g class="st5">
		<text transform="matrix(1 0 0 1 210.6802 379.9004)"><tspan x="0" y="0" class="st10 st7 st8">Late CRC </tspan><tspan x="102.71" y="0" class="st10 st7 st8 st9">A</tspan><tspan x="116.28" y="0" class="st10 st7 st8">UC = 87.97%</tspan></text>
	</g>
	<g class="st5">
		<text transform="matrix(1 0 0 1 215.2798 416.1504)"><tspan x="0" y="0" class="st11 st7 st8">Ea</tspan><tspan x="26.91" y="0" class="st11 st7 st8">r</tspan><tspan x="34.54" y="0" class="st11 st7 st8">ly CRC </tspan><tspan x="110.32" y="0" class="st11 st7 st8 st9">A</tspan><tspan x="123.89" y="0" class="st11 st7 st8">UC = 82.6%</tspan></text>
	</g>
</g>
<text transform="matrix(1 0 0 1 174.8144 493.7031)"><tspan x="0" y="0" class="st7 st12">F</tspan><tspan x="8.99" y="0" class="st7 st12">alse </tspan><tspan x="42.79" y="0" class="st7 st12">P</tspan><tspan x="52.67" y="0" class="st7 st12">osti</tspan><tspan x="77.57" y="0" class="st7 st12">v</tspan><tspan x="85.17" y="0" class="st7 st12">e </tspan><tspan x="98.52" y="0" class="st7 st12">P</tspan><tspan x="108.39" y="0" class="st7 st12">ercentage</tspan></text>
<text transform="matrix(-6.123234e-17 -1 1 -6.123234e-17 19.8846 321.4727)"><tspan x="0" y="0" class="st7 st12 st9">T</tspan><tspan x="7.87" y="0" class="st7 st12">r</tspan><tspan x="13.42" y="0" class="st7 st12">ue </tspan><tspan x="35.66" y="0" class="st7 st12">P</tspan><tspan x="45.54" y="0" class="st7 st12">osti</tspan><tspan x="70.43" y="0" class="st7 st12">v</tspan><tspan x="78.03" y="0" class="st7 st12">e </tspan><tspan x="91.38" y="0" class="st7 st12">P</tspan><tspan x="101.25" y="0" class="st7 st12">ercentage</tspan></text>
<text transform="matrix(1 0 0 1 61.4545 472.1025)" class="st7 st12">  0</text>
<text transform="matrix(1 0 0 1 138.5844 472.1025)" class="st7 st12"> 20</text>
<text transform="matrix(1 0 0 1 215.3847 472.1025)" class="st7 st12"> 40</text>
<text transform="matrix(1 0 0 1 292.1845 472.1025)" class="st7 st12"> 60</text>
<text transform="matrix(1 0 0 1 368.9843 472.1025)" class="st7 st12"> 80</text>
<text transform="matrix(1 0 0 1 444.1142 472.1025)" class="st7 st12">100</text>
<text transform="matrix(-6.123234e-17 -1 1 -6.123234e-17 41.4841 444.4922)" class="st7 st12">  0</text>
<text transform="matrix(-6.123234e-17 -1 1 -6.123234e-17 41.4842 369.3633)" class="st7 st12"> 20</text>
<text transform="matrix(-6.123234e-17 -1 1 -6.123234e-17 41.4844 292.5625)" class="st7 st12"> 40</text>
<text transform="matrix(-6.123234e-17 -1 1 -6.123234e-17 41.4846 215.7617)" class="st7 st12"> 60</text>
<text transform="matrix(-6.123234e-17 -1 1 -6.123234e-17 41.4848 138.9629)" class="st7 st12"> 80</text>
<text transform="matrix(-6.123234e-17 -1 1 -6.123234e-17 41.4844 63.832)" class="st7 st12">100</text>
</svg>
