<?xml version="1.0" encoding="utf-8"?>
<!-- Generator: Adobe Illustrator 24.0.2, SVG Export Plug-In . SVG Version: 6.00 Build 0)  -->
<svg version="1.1" id="图层_1" xmlns="http://www.w3.org/2000/svg" xmlns:xlink="http://www.w3.org/1999/xlink" x="0px" y="0px"
	 viewBox="0 0 504 504" style="enable-background:new 0 0 504 504;" xml:space="preserve">
<style type="text/css">
	.st0{fill:none;stroke:#000000;stroke-width:0.75;stroke-linecap:round;stroke-linejoin:round;stroke-miterlimit:10;}
	
		.st1{clip-path:url(#SVGID_2_);fill:none;stroke:#A9A9A9;stroke-width:0.75;stroke-linecap:round;stroke-linejoin:round;stroke-miterlimit:10;}
	
		.st2{opacity:0.392;clip-path:url(#SVGID_2_);fill:none;stroke:#4CAECC;stroke-width:3;stroke-linecap:round;stroke-linejoin:round;stroke-miterlimit:10;}
	
		.st3{opacity:0.588;clip-path:url(#SVGID_2_);fill:none;stroke:#FFAA00;stroke-width:1.5;stroke-linecap:round;stroke-linejoin:round;stroke-miterlimit:10;stroke-dasharray:9,6;}
	.st4{clip-path:url(#SVGID_2_);}
	
		.st5{opacity:0.588;clip-path:url(#SVGID_2_);fill:none;stroke:#FB0007;stroke-width:1.5;stroke-linecap:round;stroke-linejoin:round;stroke-miterlimit:10;stroke-dasharray:1.5,4.5,7.5,4.5;}
	.st6{fill:#4CAECC;}
	.st7{font-family:'ArialMT';}
	.st8{font-size:22px;}
	.st9{letter-spacing:-1;}
	.st10{fill:#FB0007;}
	.st11{fill:#FFAA00;}
	.st12{font-size:16px;}
</style>
<rect x="59.04" y="30.24" class="st0" width="414.72" height="414.72"/>
<line class="st0" x1="458.4" y1="444.96" x2="74.4" y2="444.96"/>
<line class="st0" x1="458.4" y1="444.96" x2="458.4" y2="452.16"/>
<line class="st0" x1="381.6" y1="444.96" x2="381.6" y2="452.16"/>
<line class="st0" x1="304.8" y1="444.96" x2="304.8" y2="452.16"/>
<line class="st0" x1="228" y1="444.96" x2="228" y2="452.16"/>
<line class="st0" x1="151.2" y1="444.96" x2="151.2" y2="452.16"/>
<line class="st0" x1="74.4" y1="444.96" x2="74.4" y2="452.16"/>
<line class="st0" x1="59.04" y1="429.6" x2="59.04" y2="45.6"/>
<line class="st0" x1="59.04" y1="429.6" x2="51.84" y2="429.6"/>
<line class="st0" x1="59.04" y1="352.8" x2="51.84" y2="352.8"/>
<line class="st0" x1="59.04" y1="276" x2="51.84" y2="276"/>
<line class="st0" x1="59.04" y1="199.2" x2="51.84" y2="199.2"/>
<line class="st0" x1="59.04" y1="122.4" x2="51.84" y2="122.4"/>
<line class="st0" x1="59.04" y1="45.6" x2="51.84" y2="45.6"/>
<g>
	<defs>
		<rect id="SVGID_1_" x="59.04" y="30.24" width="414.72" height="414.72"/>
	</defs>
	<clipPath id="SVGID_2_">
		<use xlink:href="#SVGID_1_"  style="overflow:visible;"/>
	</clipPath>
	<line class="st1" x1="59.04" y1="444.96" x2="473.76" y2="30.24"/>
	<polyline class="st2" points="458.4,45.6 449.47,45.6 449.47,52.85 440.54,52.85 431.61,52.85 422.68,52.85 413.75,52.85 
		395.89,52.85 386.96,52.85 378.03,52.85 369.1,52.85 360.17,52.85 351.24,52.85 342.31,52.85 333.38,52.85 324.45,52.85 
		324.45,60.09 315.52,60.09 306.59,60.09 297.66,60.09 288.73,60.09 279.8,60.09 270.87,60.09 261.93,60.09 253,60.09 244.07,60.09 
		244.07,67.34 235.14,67.34 226.21,67.34 217.28,67.34 217.28,74.58 208.35,74.58 199.42,81.83 190.49,81.83 181.56,81.83 
		172.63,81.83 172.63,89.07 163.7,89.07 163.7,96.32 163.7,103.56 154.77,110.81 154.77,118.05 145.84,118.05 145.84,132.54 
		145.84,147.03 136.91,154.28 136.91,161.52 127.98,161.52 127.98,168.77 119.05,168.77 119.05,176.02 119.05,183.26 119.05,190.51 
		119.05,197.75 110.12,197.75 110.12,205 110.12,212.24 110.12,219.49 101.19,219.49 101.19,226.73 101.19,233.98 101.19,241.22 
		101.19,248.47 101.19,255.71 101.19,262.96 101.19,270.2 92.26,270.2 92.26,277.45 92.26,284.69 92.26,291.94 92.26,299.18 
		92.26,306.43 83.33,306.43 74.4,306.43 74.4,313.68 74.4,320.92 74.4,328.17 74.4,335.41 74.4,342.66 74.4,349.9 74.4,357.15 
		74.4,364.39 74.4,371.64 74.4,378.88 74.4,386.13 74.4,393.37 74.4,400.62 74.4,407.86 74.4,415.11 74.4,429.6 	"/>
	<polyline class="st3" points="458.4,45.6 442.4,45.6 442.4,52.85 426.4,52.85 410.4,52.85 394.4,52.85 378.4,52.85 362.4,52.85 
		346.4,52.85 330.4,52.85 330.4,60.09 314.4,60.09 298.4,60.09 282.4,60.09 266.4,60.09 250.4,60.09 250.4,67.34 234.4,67.34 
		234.4,74.58 218.4,74.58 202.4,81.83 186.4,81.83 186.4,89.07 186.4,96.32 186.4,103.56 170.4,110.81 170.4,118.05 170.4,132.54 
		170.4,147.03 154.4,154.28 154.4,161.52 138.4,161.52 138.4,168.77 122.4,168.77 122.4,176.02 122.4,183.26 122.4,190.51 
		122.4,197.75 122.4,205 122.4,212.24 122.4,219.49 122.4,226.73 122.4,233.98 122.4,241.22 122.4,248.47 122.4,255.71 
		122.4,262.96 122.4,270.2 106.4,270.2 106.4,277.45 106.4,284.69 106.4,291.94 106.4,299.18 106.4,306.43 90.4,306.43 74.4,306.43 
		74.4,313.68 74.4,320.92 74.4,328.17 74.4,335.41 74.4,342.66 74.4,349.9 74.4,357.15 74.4,364.39 74.4,371.64 74.4,378.88 
		74.4,386.13 74.4,393.37 74.4,400.62 74.4,407.86 74.4,415.11 74.4,429.6 	"/>
	<g class="st4">
		<text transform="matrix(1 0 0 1 -469.3367 398.6025)"><tspan x="0" y="0" class="st7 st12">F</tspan><tspan x="8.99" y="0" class="st7 st12">alse </tspan><tspan x="42.79" y="0" class="st7 st12">P</tspan><tspan x="52.67" y="0" class="st7 st12">osti</tspan><tspan x="77.57" y="0" class="st7 st12">v</tspan><tspan x="85.17" y="0" class="st7 st12">e </tspan><tspan x="98.52" y="0" class="st7 st12">P</tspan><tspan x="108.39" y="0" class="st7 st12">ercentage</tspan></text>
		<text transform="matrix(-6.123234e-17 -1 1 -6.123234e-17 -624.2666 226.3721)"><tspan x="0" y="0" class="st7 st12 st9">T</tspan><tspan x="7.87" y="0" class="st7 st12">r</tspan><tspan x="13.42" y="0" class="st7 st12">ue </tspan><tspan x="35.66" y="0" class="st7 st12">P</tspan><tspan x="45.54" y="0" class="st7 st12">osti</tspan><tspan x="70.43" y="0" class="st7 st12">v</tspan><tspan x="78.03" y="0" class="st7 st12">e </tspan><tspan x="91.38" y="0" class="st7 st12">P</tspan><tspan x="101.25" y="0" class="st7 st12">ercentage</tspan></text>
		<text transform="matrix(1 0 0 1 -582.6966 377.002)" class="st7 st12">  0</text>
		<text transform="matrix(1 0 0 1 -505.5667 377.002)" class="st7 st12"> 20</text>
		<text transform="matrix(1 0 0 1 -428.7664 377.002)" class="st7 st12"> 40</text>
		<text transform="matrix(1 0 0 1 -351.9666 377.002)" class="st7 st12"> 60</text>
		<text transform="matrix(1 0 0 1 -275.1668 377.002)" class="st7 st12"> 80</text>
		<text transform="matrix(1 0 0 1 -200.0369 377.002)" class="st7 st12">100</text>
		<text transform="matrix(-6.123234e-17 -1 1 -6.123234e-17 -602.6671 349.3926)" class="st7 st12">  0</text>
		<text transform="matrix(-6.123234e-17 -1 1 -6.123234e-17 -602.6669 274.2627)" class="st7 st12"> 20</text>
		<text transform="matrix(-6.123234e-17 -1 1 -6.123234e-17 -602.6667 197.4619)" class="st7 st12"> 40</text>
		<text transform="matrix(-6.123234e-17 -1 1 -6.123234e-17 -602.6666 120.6621)" class="st7 st12"> 60</text>
		<text transform="matrix(-6.123234e-17 -1 1 -6.123234e-17 -602.6663 43.8623)" class="st7 st12"> 80</text>
		<text transform="matrix(-6.123234e-17 -1 1 -6.123234e-17 -602.6667 -31.2676)" class="st7 st12">100</text>
	</g>
	<polyline class="st5" points="458.4,45.6 458.4,52.85 438.19,52.85 417.98,52.85 377.56,52.85 357.35,52.85 337.14,52.85 
		316.93,52.85 316.93,60.09 296.72,60.09 276.51,60.09 256.29,60.09 236.08,60.09 236.08,67.34 215.87,67.34 195.66,67.34 
		195.66,74.58 195.66,81.83 175.45,81.83 155.24,81.83 155.24,89.07 135.03,89.07 135.03,96.32 135.03,103.56 135.03,110.81 
		135.03,118.05 114.82,118.05 114.82,132.54 114.82,147.03 114.82,154.28 114.82,161.52 114.82,168.77 114.82,176.02 114.82,183.26 
		114.82,190.51 114.82,197.75 94.61,197.75 94.61,205 94.61,212.24 94.61,219.49 74.4,219.49 74.4,226.73 74.4,233.98 74.4,241.22 
		74.4,248.47 74.4,255.71 74.4,262.96 74.4,270.2 74.4,277.45 74.4,284.69 74.4,291.94 74.4,299.18 74.4,306.43 74.4,313.68 
		74.4,320.92 74.4,328.17 74.4,335.41 74.4,342.66 74.4,349.9 74.4,357.15 74.4,364.39 74.4,371.64 74.4,378.88 74.4,386.13 
		74.4,393.37 74.4,400.62 74.4,407.86 74.4,415.11 74.4,429.6 	"/>
	<g class="st4">
		<text transform="matrix(1 0 0 1 259.6104 341.5)"><tspan x="0" y="0" class="st6 st7 st8">CRC </tspan><tspan x="53.78" y="0" class="st6 st7 st8 st9">A</tspan><tspan x="67.35" y="0" class="st6 st7 st8">UC = 87.52%</tspan></text>
	</g>
	<g class="st4">
		<text transform="matrix(1 0 0 1 210.6802 379.9004)"><tspan x="0" y="0" class="st10 st7 st8">Late CRC </tspan><tspan x="102.71" y="0" class="st10 st7 st8 st9">A</tspan><tspan x="116.28" y="0" class="st10 st7 st8">UC = 90.86%</tspan></text>
	</g>
	<g class="st4">
		<text transform="matrix(1 0 0 1 203.0498 416.1504)"><tspan x="0" y="0" class="st11 st7 st8">Ea</tspan><tspan x="26.91" y="0" class="st11 st7 st8">r</tspan><tspan x="34.54" y="0" class="st11 st7 st8">ly CRC </tspan><tspan x="110.32" y="0" class="st11 st7 st8 st9">A</tspan><tspan x="123.89" y="0" class="st11 st7 st8">UC = 84.87%</tspan></text>
	</g>
</g>
<text transform="matrix(1 0 0 1 174.4811 492.9351)"><tspan x="0" y="0" class="st7 st12">F</tspan><tspan x="8.99" y="0" class="st7 st12">alse </tspan><tspan x="42.79" y="0" class="st7 st12">P</tspan><tspan x="52.67" y="0" class="st7 st12">osti</tspan><tspan x="77.57" y="0" class="st7 st12">v</tspan><tspan x="85.17" y="0" class="st7 st12">e </tspan><tspan x="98.52" y="0" class="st7 st12">P</tspan><tspan x="108.39" y="0" class="st7 st12">ercentage</tspan></text>
<text transform="matrix(-6.123234e-17 -1 1 -6.123234e-17 19.5513 320.7051)"><tspan x="0" y="0" class="st7 st12 st9">T</tspan><tspan x="7.87" y="0" class="st7 st12">r</tspan><tspan x="13.42" y="0" class="st7 st12">ue </tspan><tspan x="35.66" y="0" class="st7 st12">P</tspan><tspan x="45.54" y="0" class="st7 st12">osti</tspan><tspan x="70.43" y="0" class="st7 st12">v</tspan><tspan x="78.03" y="0" class="st7 st12">e </tspan><tspan x="91.38" y="0" class="st7 st12">P</tspan><tspan x="101.25" y="0" class="st7 st12">ercentage</tspan></text>
<text transform="matrix(1 0 0 1 61.1213 471.3345)" class="st7 st12">  0</text>
<text transform="matrix(1 0 0 1 138.2511 471.3345)" class="st7 st12"> 20</text>
<text transform="matrix(1 0 0 1 215.0514 471.3345)" class="st7 st12"> 40</text>
<text transform="matrix(1 0 0 1 291.8512 471.3345)" class="st7 st12"> 60</text>
<text transform="matrix(1 0 0 1 368.651 471.3345)" class="st7 st12"> 80</text>
<text transform="matrix(1 0 0 1 443.7809 471.3345)" class="st7 st12">100</text>
<text transform="matrix(-6.123234e-17 -1 1 -6.123234e-17 41.1508 443.7246)" class="st7 st12">  0</text>
<text transform="matrix(-6.123234e-17 -1 1 -6.123234e-17 41.1509 368.5957)" class="st7 st12"> 20</text>
<text transform="matrix(-6.123234e-17 -1 1 -6.123234e-17 41.1511 291.7949)" class="st7 st12"> 40</text>
<text transform="matrix(-6.123234e-17 -1 1 -6.123234e-17 41.1513 214.9941)" class="st7 st12"> 60</text>
<text transform="matrix(-6.123234e-17 -1 1 -6.123234e-17 41.1515 138.1953)" class="st7 st12"> 80</text>
<text transform="matrix(-6.123234e-17 -1 1 -6.123234e-17 41.1512 63.0645)" class="st7 st12">100</text>
</svg>
