<?xml version="1.0" encoding="utf-8"?>
<!-- Generator: Adobe Illustrator 24.0.2, SVG Export Plug-In . SVG Version: 6.00 Build 0)  -->
<svg version="1.1" id="图层_1" xmlns="http://www.w3.org/2000/svg" xmlns:xlink="http://www.w3.org/1999/xlink" x="0px" y="0px"
	 viewBox="0 0 504 504" style="enable-background:new 0 0 504 504;" xml:space="preserve">
<style type="text/css">
	.st0{fill:none;stroke:#000000;stroke-width:0.75;stroke-linecap:round;stroke-linejoin:round;stroke-miterlimit:10;}
	
		.st1{clip-path:url(#SVGID_2_);fill:none;stroke:#A9A9A9;stroke-width:0.75;stroke-linecap:round;stroke-linejoin:round;stroke-miterlimit:10;}
	
		.st2{opacity:0.392;clip-path:url(#SVGID_2_);fill:none;stroke:#4CAECC;stroke-width:3;stroke-linecap:round;stroke-linejoin:round;stroke-miterlimit:10;}
	
		.st3{opacity:0.588;clip-path:url(#SVGID_2_);fill:none;stroke:#FFA300;stroke-width:1.5;stroke-linecap:round;stroke-linejoin:round;stroke-miterlimit:10;stroke-dasharray:9,6;}
	
		.st4{opacity:0.588;clip-path:url(#SVGID_2_);fill:none;stroke:#FB0007;stroke-width:1.5;stroke-linecap:round;stroke-linejoin:round;stroke-miterlimit:10;stroke-dasharray:1.5,4.5,7.5,4.5;}
	.st5{clip-path:url(#SVGID_2_);}
	.st6{fill:#4CAECC;}
	.st7{font-family:'ArialMT';}
	.st8{font-size:22px;}
	.st9{letter-spacing:-1;}
	.st10{fill:#FB0007;}
	.st11{fill:#FFB000;}
	.st12{font-size:16px;}
</style>
<rect x="59.04" y="30.24" class="st0" width="414.72" height="414.72"/>
<line class="st0" x1="458.4" y1="444.96" x2="74.4" y2="444.96"/>
<line class="st0" x1="458.4" y1="444.96" x2="458.4" y2="452.16"/>
<line class="st0" x1="381.6" y1="444.96" x2="381.6" y2="452.16"/>
<line class="st0" x1="304.8" y1="444.96" x2="304.8" y2="452.16"/>
<line class="st0" x1="228" y1="444.96" x2="228" y2="452.16"/>
<line class="st0" x1="151.2" y1="444.96" x2="151.2" y2="452.16"/>
<line class="st0" x1="74.4" y1="444.96" x2="74.4" y2="452.16"/>
<line class="st0" x1="59.04" y1="429.6" x2="59.04" y2="45.6"/>
<line class="st0" x1="59.04" y1="429.6" x2="51.84" y2="429.6"/>
<line class="st0" x1="59.04" y1="352.8" x2="51.84" y2="352.8"/>
<line class="st0" x1="59.04" y1="276" x2="51.84" y2="276"/>
<line class="st0" x1="59.04" y1="199.2" x2="51.84" y2="199.2"/>
<line class="st0" x1="59.04" y1="122.4" x2="51.84" y2="122.4"/>
<line class="st0" x1="59.04" y1="45.6" x2="51.84" y2="45.6"/>
<g>
	<defs>
		<rect id="SVGID_1_" x="59.04" y="30.24" width="414.72" height="414.72"/>
	</defs>
	<clipPath id="SVGID_2_">
		<use xlink:href="#SVGID_1_"  style="overflow:visible;"/>
	</clipPath>
	<line class="st1" x1="59.04" y1="444.96" x2="473.76" y2="30.24"/>
	<polyline class="st2" points="458.4,45.6 455.68,45.6 452.95,45.6 450.23,45.6 444.78,45.6 442.06,45.6 439.34,45.6 436.61,45.6 
		433.89,45.6 431.17,45.6 428.44,45.6 425.72,45.6 423,45.6 417.55,45.6 414.83,47.81 412.1,47.81 409.38,47.81 406.66,47.81 
		403.93,47.81 401.21,50.01 398.49,50.01 390.31,50.01 387.59,50.01 387.59,52.22 384.87,52.22 379.42,52.22 376.7,52.22 
		373.97,52.22 373.97,54.43 368.53,54.43 365.8,54.43 363.08,54.43 360.36,56.63 354.91,56.63 349.46,56.63 344.02,56.63 
		341.29,56.63 338.57,58.84 335.85,58.84 333.12,58.84 327.68,58.84 324.95,58.84 322.23,58.84 319.51,58.84 316.78,58.84 
		314.06,63.26 311.34,63.26 305.89,63.26 303.17,65.46 303.17,67.67 303.17,69.88 303.17,72.08 300.44,72.08 297.72,72.08 
		295,72.08 292.27,72.08 292.27,74.29 286.83,74.29 284.1,74.29 281.38,74.29 281.38,76.5 278.66,76.5 275.93,76.5 275.93,78.7 
		275.93,80.91 273.21,80.91 273.21,83.12 273.21,85.32 270.49,85.32 265.04,85.32 259.59,85.32 259.59,87.53 259.59,89.74 
		254.14,89.74 248.7,89.74 245.97,91.94 240.53,91.94 235.08,94.15 235.08,96.36 235.08,98.57 232.36,100.77 232.36,105.19 
		229.63,105.19 226.91,105.19 224.19,105.19 224.19,107.39 221.46,109.6 218.74,111.81 218.74,114.01 216.02,114.01 216.02,116.22 
		216.02,120.63 213.29,120.63 210.57,120.63 210.57,122.84 207.85,122.84 202.4,122.84 199.68,127.26 199.68,133.88 199.68,136.08 
		194.23,136.08 194.23,138.29 194.23,140.5 194.23,142.7 191.51,144.91 191.51,151.53 188.78,151.53 188.78,155.94 186.06,158.15 
		186.06,162.57 183.34,164.77 183.34,166.98 180.61,166.98 180.61,169.19 177.89,171.39 177.89,173.6 177.89,175.81 175.17,178.01 
		172.44,180.22 172.44,182.43 172.44,184.63 169.72,189.05 167,191.26 167,193.46 167,197.88 164.27,204.5 164.27,206.7 
		164.27,208.91 164.27,213.32 161.55,217.74 161.55,219.94 158.83,219.94 156.1,219.94 156.1,222.15 156.1,224.36 156.1,228.77 
		153.38,228.77 153.38,230.98 147.93,230.98 147.93,233.19 147.93,235.39 147.93,237.6 145.21,242.01 145.21,246.43 145.21,248.63 
		145.21,250.84 145.21,253.05 145.21,255.26 145.21,257.46 142.49,257.46 137.04,261.88 137.04,268.5 137.04,270.7 134.31,275.12 
		131.59,277.32 128.87,277.32 128.87,283.94 128.87,286.15 128.87,290.57 128.87,292.77 126.14,292.77 126.14,297.19 126.14,299.39 
		126.14,301.6 123.42,301.6 120.7,306.01 117.97,308.22 117.97,310.43 112.53,312.63 112.53,317.05 112.53,319.26 112.53,321.46 
		112.53,325.88 112.53,330.29 107.08,330.29 107.08,332.5 104.36,332.5 104.36,334.7 104.36,341.32 101.63,343.53 101.63,352.36 
		101.63,356.77 101.63,358.98 101.63,361.19 101.63,363.39 98.91,363.39 98.91,365.6 98.91,367.81 98.91,372.22 98.91,374.43 
		98.91,376.63 98.91,378.84 98.91,383.26 98.91,385.46 98.91,387.67 98.91,389.88 98.91,392.08 96.19,392.08 93.46,394.29 
		90.74,394.29 88.02,400.91 88.02,405.32 88.02,409.74 85.29,409.74 85.29,411.94 85.29,414.15 85.29,416.36 85.29,418.57 
		82.57,418.57 82.57,420.77 82.57,422.98 77.12,425.19 77.12,427.39 74.4,427.39 74.4,429.6 	"/>
	<polyline class="st3" points="458.4,45.6 453.88,45.6 449.36,45.6 444.85,45.6 440.33,45.6 435.81,45.6 431.29,45.6 431.29,47.81 
		426.78,47.81 422.26,47.81 417.74,50.01 413.22,50.01 404.19,50.01 404.19,52.22 395.15,52.22 390.64,52.22 390.64,54.43 
		386.12,54.43 381.6,56.63 377.08,56.63 372.56,56.63 372.56,58.84 368.05,58.84 359.01,58.84 354.49,58.84 349.98,58.84 
		349.98,63.26 345.46,63.26 340.94,63.26 336.42,65.46 336.42,67.67 336.42,69.88 336.42,72.08 331.91,72.08 327.39,72.08 
		322.87,72.08 322.87,74.29 318.35,74.29 313.84,74.29 313.84,76.5 309.32,76.5 304.8,76.5 304.8,78.7 304.8,80.91 304.8,83.12 
		304.8,85.32 300.28,85.32 291.25,85.32 286.73,85.32 286.73,87.53 286.73,89.74 277.69,89.74 273.18,89.74 268.66,91.94 
		259.62,91.94 250.59,94.15 250.59,96.36 250.59,98.57 246.07,100.77 246.07,105.19 241.55,105.19 237.04,105.19 237.04,107.39 
		232.52,109.6 232.52,111.81 232.52,114.01 228,114.01 228,116.22 228,120.63 223.48,120.63 218.96,120.63 218.96,122.84 
		218.96,127.26 218.96,133.88 218.96,136.08 218.96,138.29 218.96,140.5 218.96,142.7 214.45,144.91 214.45,151.53 209.93,151.53 
		209.93,155.94 205.41,158.15 205.41,162.57 200.89,164.77 200.89,166.98 196.38,166.98 196.38,169.19 191.86,171.39 191.86,173.6 
		191.86,175.81 187.34,178.01 182.82,180.22 182.82,182.43 182.82,184.63 182.82,189.05 182.82,191.26 182.82,193.46 182.82,197.88 
		178.31,204.5 178.31,206.7 178.31,208.91 178.31,213.32 173.79,217.74 173.79,219.94 169.27,219.94 164.75,219.94 164.75,222.15 
		164.75,224.36 164.75,228.77 164.75,230.98 160.24,230.98 160.24,233.19 160.24,235.39 160.24,237.6 155.72,242.01 155.72,246.43 
		155.72,248.63 155.72,250.84 155.72,253.05 155.72,255.26 155.72,257.46 151.2,257.46 146.68,261.88 146.68,268.5 146.68,270.7 
		142.16,275.12 137.65,277.32 133.13,277.32 133.13,283.94 133.13,286.15 133.13,290.57 133.13,292.77 128.61,292.77 128.61,297.19 
		128.61,299.39 128.61,301.6 124.09,301.6 119.58,306.01 115.06,308.22 115.06,310.43 110.54,312.63 110.54,317.05 110.54,319.26 
		110.54,321.46 110.54,325.88 110.54,330.29 106.02,330.29 106.02,332.5 106.02,334.7 106.02,341.32 101.51,343.53 101.51,352.36 
		101.51,356.77 101.51,358.98 101.51,361.19 101.51,363.39 101.51,365.6 101.51,367.81 101.51,372.22 101.51,374.43 101.51,376.63 
		101.51,378.84 101.51,383.26 101.51,385.46 101.51,387.67 101.51,389.88 101.51,392.08 96.99,392.08 96.99,394.29 92.47,394.29 
		87.95,400.91 87.95,405.32 87.95,409.74 83.44,409.74 83.44,411.94 83.44,414.15 83.44,416.36 83.44,418.57 83.44,420.77 
		83.44,422.98 78.92,425.19 78.92,427.39 74.4,427.39 74.4,429.6 	"/>
	<polyline class="st4" points="458.4,45.6 451.54,45.6 444.69,45.6 437.83,45.6 430.97,45.6 424.11,45.6 417.26,45.6 410.4,45.6 
		403.54,45.6 396.69,45.6 389.83,47.81 382.97,47.81 376.11,47.81 376.11,50.01 369.26,50.01 362.4,50.01 362.4,52.22 355.54,52.22 
		348.69,52.22 348.69,54.43 341.83,54.43 334.97,54.43 328.11,54.43 328.11,56.63 314.4,56.63 307.54,56.63 300.69,56.63 
		293.83,56.63 286.97,58.84 280.11,58.84 273.26,58.84 266.4,58.84 259.54,63.26 252.69,63.26 252.69,65.46 252.69,67.67 
		252.69,69.88 252.69,72.08 245.83,72.08 245.83,74.29 238.97,74.29 232.11,74.29 232.11,76.5 232.11,78.7 232.11,80.91 
		225.26,80.91 225.26,83.12 225.26,85.32 218.4,85.32 218.4,87.53 218.4,89.74 211.54,89.74 211.54,91.94 211.54,94.15 
		211.54,96.36 211.54,98.57 211.54,100.77 211.54,105.19 204.69,105.19 204.69,107.39 204.69,109.6 197.83,111.81 197.83,114.01 
		197.83,116.22 197.83,120.63 197.83,122.84 190.97,122.84 177.26,122.84 170.4,127.26 170.4,133.88 170.4,136.08 156.69,136.08 
		156.69,138.29 156.69,140.5 156.69,142.7 156.69,144.91 156.69,151.53 156.69,155.94 156.69,158.15 156.69,162.57 156.69,164.77 
		156.69,166.98 156.69,169.19 156.69,171.39 156.69,173.6 156.69,175.81 156.69,178.01 156.69,180.22 156.69,182.43 156.69,184.63 
		149.83,189.05 142.97,191.26 142.97,193.46 142.97,197.88 142.97,204.5 142.97,206.7 142.97,208.91 142.97,213.32 142.97,217.74 
		142.97,219.94 142.97,222.15 142.97,224.36 142.97,228.77 136.11,228.77 136.11,230.98 129.26,230.98 129.26,233.19 129.26,235.39 
		129.26,237.6 129.26,242.01 129.26,246.43 129.26,248.63 129.26,250.84 129.26,253.05 129.26,255.26 129.26,257.46 122.4,261.88 
		122.4,268.5 122.4,270.7 122.4,275.12 122.4,277.32 122.4,283.94 122.4,286.15 122.4,290.57 122.4,292.77 122.4,297.19 
		122.4,299.39 122.4,301.6 122.4,306.01 122.4,308.22 122.4,310.43 115.54,312.63 115.54,317.05 115.54,319.26 115.54,321.46 
		115.54,325.88 115.54,330.29 108.69,330.29 108.69,332.5 101.83,332.5 101.83,334.7 101.83,341.32 101.83,343.53 101.83,352.36 
		101.83,356.77 101.83,358.98 101.83,361.19 101.83,363.39 94.97,363.39 94.97,365.6 94.97,367.81 94.97,372.22 94.97,374.43 
		94.97,376.63 94.97,378.84 94.97,383.26 94.97,385.46 94.97,387.67 94.97,389.88 94.97,392.08 88.11,394.29 88.11,400.91 
		88.11,405.32 88.11,409.74 88.11,411.94 88.11,414.15 88.11,416.36 88.11,418.57 81.26,418.57 81.26,420.77 81.26,422.98 
		74.4,425.19 74.4,427.39 74.4,429.6 	"/>
	<g class="st5">
		<text transform="matrix(1 0 0 1 271.8398 341.5)"><tspan x="0" y="0" class="st6 st7 st8">CRC </tspan><tspan x="53.78" y="0" class="st6 st7 st8 st9">A</tspan><tspan x="67.35" y="0" class="st6 st7 st8">UC = 76.6%</tspan></text>
	</g>
	<g class="st5">
		<text transform="matrix(1 0 0 1 210.6802 379.9004)"><tspan x="0" y="0" class="st10 st7 st8">Late CRC </tspan><tspan x="102.71" y="0" class="st10 st7 st8 st9">A</tspan><tspan x="116.28" y="0" class="st10 st7 st8">UC = 80.76%</tspan></text>
	</g>
	<g class="st5">
		<text transform="matrix(1 0 0 1 203.0498 416.1504)"><tspan x="0" y="0" class="st11 st7 st8">Ea</tspan><tspan x="26.91" y="0" class="st11 st7 st8">r</tspan><tspan x="34.54" y="0" class="st11 st7 st8">ly CRC </tspan><tspan x="110.32" y="0" class="st11 st7 st8 st9">A</tspan><tspan x="123.89" y="0" class="st11 st7 st8">UC = 73.85%</tspan></text>
	</g>
</g>
<text transform="matrix(1 0 0 1 175.8144 491.7031)"><tspan x="0" y="0" class="st7 st12">F</tspan><tspan x="8.99" y="0" class="st7 st12">alse </tspan><tspan x="42.79" y="0" class="st7 st12">P</tspan><tspan x="52.67" y="0" class="st7 st12">osti</tspan><tspan x="77.57" y="0" class="st7 st12">v</tspan><tspan x="85.17" y="0" class="st7 st12">e </tspan><tspan x="98.52" y="0" class="st7 st12">P</tspan><tspan x="108.39" y="0" class="st7 st12">ercentage</tspan></text>
<text transform="matrix(-6.123234e-17 -1 1 -6.123234e-17 20.8846 319.4727)"><tspan x="0" y="0" class="st7 st12 st9">T</tspan><tspan x="7.87" y="0" class="st7 st12">r</tspan><tspan x="13.42" y="0" class="st7 st12">ue </tspan><tspan x="35.66" y="0" class="st7 st12">P</tspan><tspan x="45.54" y="0" class="st7 st12">osti</tspan><tspan x="70.43" y="0" class="st7 st12">v</tspan><tspan x="78.03" y="0" class="st7 st12">e </tspan><tspan x="91.38" y="0" class="st7 st12">P</tspan><tspan x="101.25" y="0" class="st7 st12">ercentage</tspan></text>
<text transform="matrix(1 0 0 1 62.4545 470.1025)" class="st7 st12">  0</text>
<text transform="matrix(1 0 0 1 139.5844 470.1025)" class="st7 st12"> 20</text>
<text transform="matrix(1 0 0 1 216.3847 470.1025)" class="st7 st12"> 40</text>
<text transform="matrix(1 0 0 1 293.1845 470.1025)" class="st7 st12"> 60</text>
<text transform="matrix(1 0 0 1 369.9843 470.1025)" class="st7 st12"> 80</text>
<text transform="matrix(1 0 0 1 445.1142 470.1025)" class="st7 st12">100</text>
<text transform="matrix(-6.123234e-17 -1 1 -6.123234e-17 42.4841 442.4922)" class="st7 st12">  0</text>
<text transform="matrix(-6.123234e-17 -1 1 -6.123234e-17 42.4842 367.3633)" class="st7 st12"> 20</text>
<text transform="matrix(-6.123234e-17 -1 1 -6.123234e-17 42.4844 290.5625)" class="st7 st12"> 40</text>
<text transform="matrix(-6.123234e-17 -1 1 -6.123234e-17 42.4846 213.7617)" class="st7 st12"> 60</text>
<text transform="matrix(-6.123234e-17 -1 1 -6.123234e-17 42.4848 136.9629)" class="st7 st12"> 80</text>
<text transform="matrix(-6.123234e-17 -1 1 -6.123234e-17 42.4844 61.832)" class="st7 st12">100</text>
</svg>
