<?xml version="1.0" encoding="utf-8"?>
<!-- Generator: Adobe Illustrator 24.0.2, SVG Export Plug-In . SVG Version: 6.00 Build 0)  -->
<svg version="1.1" id="图层_1" xmlns="http://www.w3.org/2000/svg" xmlns:xlink="http://www.w3.org/1999/xlink" x="0px" y="0px"
	 viewBox="0 0 311.11 504" enable-background="new 0 0 311.11 504" xml:space="preserve">
<g>
	<defs>
		<rect id="SVGID_1_" x="64.09" y="44.68" width="241.54" height="427.41"/>
	</defs>
	<clipPath id="SVGID_2_">
		<use xlink:href="#SVGID_1_"  overflow="visible"/>
	</clipPath>
	<rect x="64.09" y="44.68" clip-path="url(#SVGID_2_)" fill="#FFFFFF" width="241.54" height="427.41"/>
	
		<line clip-path="url(#SVGID_2_)" fill="none" stroke="#DEDEDE" stroke-width="0.27" stroke-linejoin="round" stroke-miterlimit="10" x1="64.09" y1="458.01" x2="305.63" y2="458.01"/>
	
		<line clip-path="url(#SVGID_2_)" fill="none" stroke="#DEDEDE" stroke-width="0.27" stroke-linejoin="round" stroke-miterlimit="10" x1="64.09" y1="356.76" x2="305.63" y2="356.76"/>
	
		<line clip-path="url(#SVGID_2_)" fill="none" stroke="#DEDEDE" stroke-width="0.27" stroke-linejoin="round" stroke-miterlimit="10" x1="64.09" y1="255.52" x2="305.63" y2="255.52"/>
	
		<line clip-path="url(#SVGID_2_)" fill="none" stroke="#DEDEDE" stroke-width="0.27" stroke-linejoin="round" stroke-miterlimit="10" x1="64.09" y1="154.27" x2="305.63" y2="154.27"/>
	
		<line clip-path="url(#SVGID_2_)" fill="none" stroke="#DEDEDE" stroke-width="0.27" stroke-linejoin="round" stroke-miterlimit="10" x1="64.09" y1="53.03" x2="305.63" y2="53.03"/>
	
		<line clip-path="url(#SVGID_2_)" fill="none" stroke="#DEDEDE" stroke-width="0.53" stroke-linejoin="round" stroke-miterlimit="10" x1="64.09" y1="407.39" x2="305.63" y2="407.39"/>
	
		<line clip-path="url(#SVGID_2_)" fill="none" stroke="#DEDEDE" stroke-width="0.53" stroke-linejoin="round" stroke-miterlimit="10" x1="64.09" y1="306.14" x2="305.63" y2="306.14"/>
	
		<line clip-path="url(#SVGID_2_)" fill="none" stroke="#DEDEDE" stroke-width="0.53" stroke-linejoin="round" stroke-miterlimit="10" x1="64.09" y1="204.89" x2="305.63" y2="204.89"/>
	
		<line clip-path="url(#SVGID_2_)" fill="none" stroke="#DEDEDE" stroke-width="0.53" stroke-linejoin="round" stroke-miterlimit="10" x1="64.09" y1="103.65" x2="305.63" y2="103.65"/>
	
		<line clip-path="url(#SVGID_2_)" fill="none" stroke="#DEDEDE" stroke-width="0.53" stroke-linejoin="round" stroke-miterlimit="10" x1="129.97" y1="472.09" x2="129.97" y2="44.68"/>
	
		<line clip-path="url(#SVGID_2_)" fill="none" stroke="#DEDEDE" stroke-width="0.53" stroke-linejoin="round" stroke-miterlimit="10" x1="239.76" y1="472.09" x2="239.76" y2="44.68"/>
	<polygon clip-path="url(#SVGID_2_)" fill="#57868C" points="129.96,606.62 129.96,605.75 129.96,604.88 129.95,604.01 
		129.94,603.14 129.93,602.28 129.91,601.41 129.89,600.54 129.86,599.67 129.83,598.8 129.8,597.93 129.76,597.06 129.72,596.19 
		129.69,595.32 129.66,594.45 129.63,593.58 129.62,592.71 129.62,591.84 129.63,590.98 129.65,590.11 129.67,589.24 129.71,588.37 
		129.75,587.5 129.78,586.63 129.82,585.76 129.85,584.89 129.88,584.02 129.9,583.15 129.92,582.28 129.94,581.41 129.95,580.55 
		129.95,579.68 129.96,578.81 129.96,577.94 129.96,577.07 129.96,576.2 129.97,575.33 129.97,574.46 129.97,573.59 129.97,572.72 
		129.97,571.85 129.97,570.98 129.97,570.11 129.97,569.25 129.97,568.38 129.97,567.51 129.97,566.64 129.97,565.77 129.97,564.9 
		129.97,564.03 129.97,563.16 129.97,562.29 129.97,561.42 129.97,560.55 129.97,559.68 129.97,558.81 129.97,557.95 129.97,557.08 
		129.97,556.21 129.97,555.34 129.97,554.47 129.97,553.6 129.97,552.73 129.97,551.86 129.97,550.99 129.97,550.12 129.97,549.25 
		129.97,548.38 129.97,547.52 129.97,546.65 129.97,545.78 129.97,544.91 129.97,544.04 129.97,543.17 129.97,542.3 129.97,541.43 
		129.97,540.56 129.97,539.69 129.97,538.82 129.97,537.95 129.97,537.08 129.97,536.22 129.97,535.35 129.97,534.48 129.97,533.61 
		129.97,532.74 129.97,531.87 129.97,531 129.97,530.13 129.97,529.26 129.97,528.39 129.97,527.52 129.97,526.65 129.97,525.78 
		129.97,524.92 129.97,524.05 129.97,523.18 129.97,522.31 129.97,521.44 129.97,520.57 129.97,519.7 129.97,518.83 129.97,517.96 
		129.97,517.09 129.97,516.22 129.97,515.35 129.97,514.49 129.97,513.62 129.97,512.75 129.97,511.88 129.97,511.01 129.97,510.14 
		129.97,509.27 129.97,508.4 129.97,507.53 129.97,506.66 129.97,505.79 129.97,504.92 129.97,504.05 129.97,503.19 129.97,502.32 
		129.97,501.45 129.97,500.58 129.97,499.71 129.97,498.84 129.97,497.97 129.97,497.1 129.97,496.23 129.97,495.36 129.97,494.49 
		129.97,493.62 129.97,492.76 129.97,491.89 129.97,491.02 129.97,490.15 129.97,489.28 129.97,488.41 129.97,487.54 129.97,486.67 
		129.97,485.8 129.97,484.93 129.97,484.06 129.97,483.19 129.97,482.32 129.97,481.46 129.97,480.59 129.97,479.72 129.97,478.85 
		129.97,477.98 129.97,477.11 129.97,476.24 129.97,475.37 129.97,474.5 129.97,473.63 129.97,472.76 129.97,471.89 129.97,471.02 
		129.97,470.16 129.97,469.29 129.97,468.42 129.97,467.55 129.97,466.68 129.97,465.81 129.96,464.94 129.96,464.07 129.96,463.2 
		129.96,462.33 129.95,461.46 129.94,460.59 129.93,459.73 129.91,458.86 129.89,457.99 129.86,457.12 129.83,456.25 129.8,455.38 
		129.76,454.51 129.72,453.64 129.69,452.77 129.66,451.9 129.63,451.03 129.62,450.16 129.62,449.29 129.63,448.43 129.65,447.56 
		129.67,446.69 129.71,445.82 129.74,444.95 129.78,444.08 129.82,443.21 129.85,442.34 129.88,441.47 129.9,440.6 129.92,439.73 
		129.94,438.86 129.95,438 129.95,437.13 129.96,436.26 129.96,435.39 129.96,434.52 129.96,433.65 129.97,432.78 129.97,431.91 
		129.97,431.04 129.97,430.17 129.97,429.3 129.97,428.43 129.97,427.56 129.97,426.7 129.97,425.83 129.97,424.96 129.97,424.09 
		129.97,423.22 129.97,422.35 129.97,421.48 129.97,420.61 129.97,419.74 129.97,418.87 129.97,418 129.97,417.13 129.97,416.26 
		129.97,415.4 129.97,414.53 129.97,413.66 129.97,412.79 129.97,411.92 129.97,411.05 129.97,410.18 129.97,409.31 129.97,408.44 
		129.97,407.57 129.97,406.7 129.97,405.83 129.97,404.97 129.97,404.1 129.97,403.23 129.97,402.36 129.97,401.49 129.97,400.62 
		129.97,399.75 129.97,398.88 129.97,398.01 129.97,397.14 129.97,396.27 129.97,395.4 129.97,394.53 129.97,393.67 129.97,392.8 
		129.97,391.93 129.97,391.06 129.97,390.19 129.97,389.32 129.97,388.45 129.97,387.58 129.97,386.71 129.97,385.84 129.97,384.97 
		129.97,384.1 129.97,383.24 129.96,382.37 129.96,381.5 129.96,380.63 129.96,379.76 129.95,378.89 129.94,378.02 129.93,377.15 
		129.91,376.28 129.89,375.41 129.86,374.54 129.83,373.67 129.79,372.8 129.75,371.94 129.71,371.07 129.68,370.2 129.64,369.33 
		129.62,368.46 129.59,367.59 129.58,366.72 129.57,365.85 129.56,364.98 129.55,364.11 129.54,363.24 129.52,362.37 129.5,361.5 
		129.46,360.64 129.42,359.77 129.37,358.9 129.33,358.03 129.29,357.16 129.26,356.29 129.25,355.42 129.26,354.55 129.29,353.68 
		129.33,352.81 129.39,351.94 129.46,351.07 129.54,350.21 129.62,349.34 129.69,348.47 129.75,347.6 129.8,346.73 129.85,345.86 
		129.88,344.99 129.9,344.12 129.92,343.25 129.93,342.38 129.92,341.51 129.91,340.64 129.9,339.77 129.87,338.91 129.83,338.04 
		129.78,337.17 129.72,336.3 129.66,335.43 129.59,334.56 129.51,333.69 129.44,332.82 129.37,331.95 129.32,331.08 129.28,330.21 
		129.27,329.34 129.28,328.47 129.31,327.61 129.35,326.74 129.42,325.87 129.49,325 129.56,324.13 129.64,323.26 129.7,322.39 
		129.77,321.52 129.82,320.65 129.86,319.78 129.89,318.91 129.92,318.04 129.93,317.18 129.95,316.31 129.95,315.44 129.96,314.57 
		129.96,313.7 129.96,312.83 129.97,311.96 129.97,311.09 129.97,310.22 129.97,309.35 129.97,308.48 129.97,307.61 129.97,306.74 
		129.97,305.88 129.96,305.01 129.96,304.14 129.96,303.27 129.95,302.4 129.95,301.53 129.94,300.66 129.92,299.79 129.91,298.92 
		129.88,298.05 129.85,297.18 129.82,296.31 129.77,295.45 129.73,294.58 129.68,293.71 129.63,292.84 129.57,291.97 129.52,291.1 
		129.47,290.23 129.43,289.36 129.39,288.49 129.35,287.62 129.32,286.75 129.28,285.88 129.26,285.01 129.23,284.15 129.2,283.28 
		129.17,282.41 129.13,281.54 129.09,280.67 129.03,279.8 128.96,278.93 128.85,278.06 128.71,277.19 128.54,276.32 128.32,275.45 
		128.06,274.58 127.77,273.71 127.45,272.85 127.13,271.98 126.8,271.11 126.5,270.24 126.24,269.37 126.02,268.5 125.86,267.63 
		125.75,266.76 125.69,265.89 125.67,265.02 125.67,264.15 125.68,263.28 125.68,262.42 125.67,261.55 125.63,260.68 125.56,259.81 
		125.47,258.94 125.35,258.07 125.21,257.2 125.04,256.33 124.85,255.46 124.61,254.59 124.34,253.72 124,252.85 123.61,251.98 
		123.17,251.12 122.66,250.25 122.09,249.38 121.48,248.51 120.83,247.64 120.15,246.77 119.45,245.9 118.75,245.03 118.05,244.16 
		117.35,243.29 116.68,242.42 116.04,241.55 115.42,240.69 114.84,239.82 114.28,238.95 113.75,238.08 113.23,237.21 112.71,236.34 
		112.18,235.47 111.59,234.6 110.95,233.73 110.21,232.86 109.36,231.99 108.39,231.12 107.31,230.25 106.14,229.39 104.89,228.52 
		103.59,227.65 102.29,226.78 101.01,225.91 99.78,225.04 98.61,224.17 97.5,223.3 96.44,222.43 95.41,221.56 94.38,220.69 
		93.32,219.82 92.23,218.95 91.08,218.09 89.89,217.22 88.66,216.35 87.41,215.48 86.19,214.61 85.02,213.74 83.94,212.87 
		82.98,212 82.17,211.13 81.53,210.26 81.06,209.39 80.76,208.52 80.6,207.66 80.56,206.79 80.63,205.92 80.79,205.05 81.03,204.18 
		81.35,203.31 81.76,202.44 82.29,201.57 82.95,200.7 83.78,199.83 84.81,198.96 86.05,198.09 87.5,197.22 89.16,196.36 91,195.49 
		93,194.62 95.12,193.75 97.32,192.88 99.55,192.01 101.79,191.14 103.98,190.27 106.09,189.4 108.1,188.53 109.97,187.66 
		111.71,186.79 113.32,185.93 114.8,185.06 116.17,184.19 117.44,183.32 118.64,182.45 119.78,181.58 120.87,180.71 121.93,179.84 
		122.95,178.97 123.93,178.1 124.85,177.23 125.71,176.36 126.5,175.49 127.2,174.63 127.8,173.76 128.32,172.89 128.74,172.02 
		129.07,171.15 129.34,170.28 129.53,169.41 129.68,168.54 129.78,167.67 129.85,166.8 129.89,165.93 129.92,165.06 129.94,164.19 
		129.95,163.33 129.96,162.46 129.98,162.46 129.98,163.33 129.99,164.19 130.01,165.06 130.04,165.93 130.09,166.8 130.16,167.67 
		130.26,168.54 130.4,169.41 130.6,170.28 130.86,171.15 131.2,172.02 131.62,172.89 132.13,173.76 132.74,174.63 133.43,175.49 
		134.22,176.36 135.08,177.23 136.01,178.1 136.99,178.97 138.01,179.84 139.06,180.71 140.15,181.58 141.29,182.45 142.49,183.32 
		143.76,184.19 145.13,185.06 146.61,185.93 148.22,186.79 149.96,187.66 151.84,188.53 153.84,189.4 155.96,190.27 158.15,191.14 
		160.38,192.01 162.62,192.88 164.82,193.75 166.93,194.62 168.93,195.49 170.77,196.36 172.43,197.22 173.88,198.09 175.12,198.96 
		176.16,199.83 176.98,200.7 177.65,201.57 178.17,202.44 178.59,203.31 178.91,204.18 179.15,205.05 179.3,205.92 179.37,206.79 
		179.34,207.66 179.17,208.52 178.87,209.39 178.4,210.26 177.77,211.13 176.95,212 175.99,212.87 174.91,213.74 173.74,214.61 
		172.52,215.48 171.28,216.35 170.05,217.22 168.85,218.09 167.7,218.95 166.61,219.82 165.56,220.69 164.53,221.56 163.5,222.43 
		162.44,223.3 161.32,224.17 160.15,225.04 158.92,225.91 157.64,226.78 156.34,227.65 155.05,228.52 153.8,229.39 152.62,230.25 
		151.54,231.12 150.57,231.99 149.72,232.86 148.99,233.73 148.34,234.6 147.76,235.47 147.22,236.34 146.7,237.21 146.18,238.08 
		145.65,238.95 145.1,239.82 144.51,240.69 143.9,241.55 143.25,242.42 142.58,243.29 141.89,244.16 141.19,245.03 140.48,245.9 
		139.78,246.77 139.1,247.64 138.45,248.51 137.84,249.38 137.28,250.25 136.77,251.12 136.32,251.98 135.93,252.85 135.6,253.72 
		135.32,254.59 135.09,255.46 134.89,256.33 134.72,257.2 134.58,258.07 134.46,258.94 134.37,259.81 134.31,260.68 134.27,261.55 
		134.25,262.42 134.26,263.28 134.27,264.15 134.27,265.02 134.25,265.89 134.18,266.76 134.07,267.63 133.91,268.5 133.69,269.37 
		133.43,270.24 133.13,271.11 132.81,271.98 132.48,272.85 132.16,273.71 131.87,274.58 131.61,275.45 131.39,276.32 131.22,277.19 
		131.08,278.06 130.98,278.93 130.9,279.8 130.84,280.67 130.8,281.54 130.76,282.41 130.73,283.28 130.71,284.15 130.68,285.01 
		130.65,285.88 130.62,286.75 130.58,287.62 130.54,288.49 130.5,289.36 130.46,290.23 130.41,291.1 130.36,291.97 130.31,292.84 
		130.26,293.71 130.21,294.58 130.16,295.45 130.12,296.31 130.08,297.18 130.05,298.05 130.03,298.92 130.01,299.79 130,300.66 
		129.99,301.53 129.98,302.4 129.97,303.27 129.97,304.14 129.97,305.01 129.97,305.88 129.97,306.74 129.97,307.61 129.97,308.48 
		129.97,309.35 129.97,310.22 129.97,311.09 129.97,311.96 129.97,312.83 129.97,313.7 129.97,314.57 129.98,315.44 129.99,316.31 
		130,317.18 130.02,318.04 130.04,318.91 130.07,319.78 130.12,320.65 130.17,321.52 130.23,322.39 130.3,323.26 130.37,324.13 
		130.45,325 130.52,325.87 130.58,326.74 130.63,327.61 130.66,328.47 130.66,329.34 130.65,330.21 130.61,331.08 130.56,331.95 
		130.5,332.82 130.42,333.69 130.35,334.56 130.28,335.43 130.21,336.3 130.15,337.17 130.1,338.04 130.07,338.91 130.04,339.77 
		130.02,340.64 130.01,341.51 130.01,342.38 130.01,343.25 130.03,344.12 130.05,344.99 130.09,345.86 130.13,346.73 130.18,347.6 
		130.25,348.47 130.32,349.34 130.39,350.21 130.47,351.07 130.54,351.94 130.6,352.81 130.64,353.68 130.67,354.55 130.68,355.42 
		130.67,356.29 130.64,357.16 130.6,358.03 130.56,358.9 130.51,359.77 130.47,360.64 130.44,361.5 130.41,362.37 130.39,363.24 
		130.38,364.11 130.37,364.98 130.36,365.85 130.35,366.72 130.34,367.59 130.32,368.46 130.29,369.33 130.26,370.2 130.22,371.07 
		130.18,371.94 130.14,372.8 130.11,373.67 130.07,374.54 130.05,375.41 130.02,376.28 130.01,377.15 129.99,378.02 129.98,378.89 
		129.98,379.76 129.97,380.63 129.97,381.5 129.97,382.37 129.97,383.24 129.97,384.1 129.97,384.97 129.97,385.84 129.97,386.71 
		129.97,387.58 129.97,388.45 129.97,389.32 129.97,390.19 129.97,391.06 129.97,391.93 129.97,392.8 129.97,393.67 129.97,394.53 
		129.97,395.4 129.97,396.27 129.97,397.14 129.97,398.01 129.97,398.88 129.97,399.75 129.97,400.62 129.97,401.49 129.97,402.36 
		129.97,403.23 129.97,404.1 129.97,404.97 129.97,405.83 129.97,406.7 129.97,407.57 129.97,408.44 129.97,409.31 129.97,410.18 
		129.97,411.05 129.97,411.92 129.97,412.79 129.97,413.66 129.97,414.53 129.97,415.4 129.97,416.26 129.97,417.13 129.97,418 
		129.97,418.87 129.97,419.74 129.97,420.61 129.97,421.48 129.97,422.35 129.97,423.22 129.97,424.09 129.97,424.96 129.97,425.83 
		129.97,426.7 129.97,427.56 129.97,428.43 129.97,429.3 129.97,430.17 129.97,431.04 129.97,431.91 129.97,432.78 129.97,433.65 
		129.97,434.52 129.97,435.39 129.98,436.26 129.98,437.13 129.99,438 130,438.86 130.01,439.73 130.03,440.6 130.06,441.47 
		130.08,442.34 130.12,443.21 130.15,444.08 130.19,444.95 130.23,445.82 130.26,446.69 130.29,447.56 130.31,448.43 130.32,449.29 
		130.31,450.16 130.3,451.03 130.28,451.9 130.25,452.77 130.21,453.64 130.17,454.51 130.14,455.38 130.1,456.25 130.07,457.12 
		130.04,457.99 130.02,458.86 130.01,459.73 129.99,460.59 129.98,461.46 129.98,462.33 129.97,463.2 129.97,464.07 129.97,464.94 
		129.97,465.81 129.97,466.68 129.97,467.55 129.97,468.42 129.97,469.29 129.97,470.16 129.97,471.02 129.97,471.89 129.97,472.76 
		129.97,473.63 129.97,474.5 129.97,475.37 129.97,476.24 129.97,477.11 129.97,477.98 129.97,478.85 129.97,479.72 129.97,480.59 
		129.97,481.46 129.97,482.32 129.97,483.19 129.97,484.06 129.97,484.93 129.97,485.8 129.97,486.67 129.97,487.54 129.97,488.41 
		129.97,489.28 129.97,490.15 129.97,491.02 129.97,491.89 129.97,492.76 129.97,493.62 129.97,494.49 129.97,495.36 129.97,496.23 
		129.97,497.1 129.97,497.97 129.97,498.84 129.97,499.71 129.97,500.58 129.97,501.45 129.97,502.32 129.97,503.19 129.97,504.05 
		129.97,504.92 129.97,505.79 129.97,506.66 129.97,507.53 129.97,508.4 129.97,509.27 129.97,510.14 129.97,511.01 129.97,511.88 
		129.97,512.75 129.97,513.62 129.97,514.49 129.97,515.35 129.97,516.22 129.97,517.09 129.97,517.96 129.97,518.83 129.97,519.7 
		129.97,520.57 129.97,521.44 129.97,522.31 129.97,523.18 129.97,524.05 129.97,524.92 129.97,525.78 129.97,526.65 129.97,527.52 
		129.97,528.39 129.97,529.26 129.97,530.13 129.97,531 129.97,531.87 129.97,532.74 129.97,533.61 129.97,534.48 129.97,535.35 
		129.97,536.22 129.97,537.08 129.97,537.95 129.97,538.82 129.97,539.69 129.97,540.56 129.97,541.43 129.97,542.3 129.97,543.17 
		129.97,544.04 129.97,544.91 129.97,545.78 129.97,546.65 129.97,547.52 129.97,548.38 129.97,549.25 129.97,550.12 129.97,550.99 
		129.97,551.86 129.97,552.73 129.97,553.6 129.97,554.47 129.97,555.34 129.97,556.21 129.97,557.08 129.97,557.95 129.97,558.81 
		129.97,559.68 129.97,560.55 129.97,561.42 129.97,562.29 129.97,563.16 129.97,564.03 129.97,564.9 129.97,565.77 129.97,566.64 
		129.97,567.51 129.97,568.38 129.97,569.25 129.97,570.11 129.97,570.98 129.97,571.85 129.97,572.72 129.97,573.59 129.97,574.46 
		129.97,575.33 129.97,576.2 129.97,577.07 129.97,577.94 129.97,578.81 129.98,579.68 129.99,580.55 130,581.41 130.01,582.28 
		130.03,583.15 130.05,584.02 130.08,584.89 130.11,585.76 130.15,586.63 130.19,587.5 130.23,588.37 130.26,589.24 130.29,590.11 
		130.31,590.98 130.32,591.84 130.31,592.71 130.3,593.58 130.28,594.45 130.25,595.32 130.21,596.19 130.18,597.06 130.14,597.93 
		130.1,598.8 130.07,599.67 130.04,600.54 130.02,601.41 130.01,602.28 129.99,603.14 129.98,604.01 129.98,604.88 129.97,605.75 
		129.97,606.62 	"/>
	
		<polygon clip-path="url(#SVGID_2_)" fill="none" stroke="#333333" stroke-width="1.07" stroke-linecap="round" stroke-linejoin="round" stroke-miterlimit="10" points="
		129.96,606.62 129.96,605.75 129.96,604.88 129.95,604.01 129.94,603.14 129.93,602.28 129.91,601.41 129.89,600.54 129.86,599.67 
		129.83,598.8 129.8,597.93 129.76,597.06 129.72,596.19 129.69,595.32 129.66,594.45 129.63,593.58 129.62,592.71 129.62,591.84 
		129.63,590.98 129.65,590.11 129.67,589.24 129.71,588.37 129.75,587.5 129.78,586.63 129.82,585.76 129.85,584.89 129.88,584.02 
		129.9,583.15 129.92,582.28 129.94,581.41 129.95,580.55 129.95,579.68 129.96,578.81 129.96,577.94 129.96,577.07 129.96,576.2 
		129.97,575.33 129.97,574.46 129.97,573.59 129.97,572.72 129.97,571.85 129.97,570.98 129.97,570.11 129.97,569.25 129.97,568.38 
		129.97,567.51 129.97,566.64 129.97,565.77 129.97,564.9 129.97,564.03 129.97,563.16 129.97,562.29 129.97,561.42 129.97,560.55 
		129.97,559.68 129.97,558.81 129.97,557.95 129.97,557.08 129.97,556.21 129.97,555.34 129.97,554.47 129.97,553.6 129.97,552.73 
		129.97,551.86 129.97,550.99 129.97,550.12 129.97,549.25 129.97,548.38 129.97,547.52 129.97,546.65 129.97,545.78 129.97,544.91 
		129.97,544.04 129.97,543.17 129.97,542.3 129.97,541.43 129.97,540.56 129.97,539.69 129.97,538.82 129.97,537.95 129.97,537.08 
		129.97,536.22 129.97,535.35 129.97,534.48 129.97,533.61 129.97,532.74 129.97,531.87 129.97,531 129.97,530.13 129.97,529.26 
		129.97,528.39 129.97,527.52 129.97,526.65 129.97,525.78 129.97,524.92 129.97,524.05 129.97,523.18 129.97,522.31 129.97,521.44 
		129.97,520.57 129.97,519.7 129.97,518.83 129.97,517.96 129.97,517.09 129.97,516.22 129.97,515.35 129.97,514.49 129.97,513.62 
		129.97,512.75 129.97,511.88 129.97,511.01 129.97,510.14 129.97,509.27 129.97,508.4 129.97,507.53 129.97,506.66 129.97,505.79 
		129.97,504.92 129.97,504.05 129.97,503.19 129.97,502.32 129.97,501.45 129.97,500.58 129.97,499.71 129.97,498.84 129.97,497.97 
		129.97,497.1 129.97,496.23 129.97,495.36 129.97,494.49 129.97,493.62 129.97,492.76 129.97,491.89 129.97,491.02 129.97,490.15 
		129.97,489.28 129.97,488.41 129.97,487.54 129.97,486.67 129.97,485.8 129.97,484.93 129.97,484.06 129.97,483.19 129.97,482.32 
		129.97,481.46 129.97,480.59 129.97,479.72 129.97,478.85 129.97,477.98 129.97,477.11 129.97,476.24 129.97,475.37 129.97,474.5 
		129.97,473.63 129.97,472.76 129.97,471.89 129.97,471.02 129.97,470.16 129.97,469.29 129.97,468.42 129.97,467.55 129.97,466.68 
		129.97,465.81 129.96,464.94 129.96,464.07 129.96,463.2 129.96,462.33 129.95,461.46 129.94,460.59 129.93,459.73 129.91,458.86 
		129.89,457.99 129.86,457.12 129.83,456.25 129.8,455.38 129.76,454.51 129.72,453.64 129.69,452.77 129.66,451.9 129.63,451.03 
		129.62,450.16 129.62,449.29 129.63,448.43 129.65,447.56 129.67,446.69 129.71,445.82 129.74,444.95 129.78,444.08 129.82,443.21 
		129.85,442.34 129.88,441.47 129.9,440.6 129.92,439.73 129.94,438.86 129.95,438 129.95,437.13 129.96,436.26 129.96,435.39 
		129.96,434.52 129.96,433.65 129.97,432.78 129.97,431.91 129.97,431.04 129.97,430.17 129.97,429.3 129.97,428.43 129.97,427.56 
		129.97,426.7 129.97,425.83 129.97,424.96 129.97,424.09 129.97,423.22 129.97,422.35 129.97,421.48 129.97,420.61 129.97,419.74 
		129.97,418.87 129.97,418 129.97,417.13 129.97,416.26 129.97,415.4 129.97,414.53 129.97,413.66 129.97,412.79 129.97,411.92 
		129.97,411.05 129.97,410.18 129.97,409.31 129.97,408.44 129.97,407.57 129.97,406.7 129.97,405.83 129.97,404.97 129.97,404.1 
		129.97,403.23 129.97,402.36 129.97,401.49 129.97,400.62 129.97,399.75 129.97,398.88 129.97,398.01 129.97,397.14 129.97,396.27 
		129.97,395.4 129.97,394.53 129.97,393.67 129.97,392.8 129.97,391.93 129.97,391.06 129.97,390.19 129.97,389.32 129.97,388.45 
		129.97,387.58 129.97,386.71 129.97,385.84 129.97,384.97 129.97,384.1 129.97,383.24 129.96,382.37 129.96,381.5 129.96,380.63 
		129.96,379.76 129.95,378.89 129.94,378.02 129.93,377.15 129.91,376.28 129.89,375.41 129.86,374.54 129.83,373.67 129.79,372.8 
		129.75,371.94 129.71,371.07 129.68,370.2 129.64,369.33 129.62,368.46 129.59,367.59 129.58,366.72 129.57,365.85 129.56,364.98 
		129.55,364.11 129.54,363.24 129.52,362.37 129.5,361.5 129.46,360.64 129.42,359.77 129.37,358.9 129.33,358.03 129.29,357.16 
		129.26,356.29 129.25,355.42 129.26,354.55 129.29,353.68 129.33,352.81 129.39,351.94 129.46,351.07 129.54,350.21 129.62,349.34 
		129.69,348.47 129.75,347.6 129.8,346.73 129.85,345.86 129.88,344.99 129.9,344.12 129.92,343.25 129.93,342.38 129.92,341.51 
		129.91,340.64 129.9,339.77 129.87,338.91 129.83,338.04 129.78,337.17 129.72,336.3 129.66,335.43 129.59,334.56 129.51,333.69 
		129.44,332.82 129.37,331.95 129.32,331.08 129.28,330.21 129.27,329.34 129.28,328.47 129.31,327.61 129.35,326.74 129.42,325.87 
		129.49,325 129.56,324.13 129.64,323.26 129.7,322.39 129.77,321.52 129.82,320.65 129.86,319.78 129.89,318.91 129.92,318.04 
		129.93,317.18 129.95,316.31 129.95,315.44 129.96,314.57 129.96,313.7 129.96,312.83 129.97,311.96 129.97,311.09 129.97,310.22 
		129.97,309.35 129.97,308.48 129.97,307.61 129.97,306.74 129.97,305.88 129.96,305.01 129.96,304.14 129.96,303.27 129.95,302.4 
		129.95,301.53 129.94,300.66 129.92,299.79 129.91,298.92 129.88,298.05 129.85,297.18 129.82,296.31 129.77,295.45 129.73,294.58 
		129.68,293.71 129.63,292.84 129.57,291.97 129.52,291.1 129.47,290.23 129.43,289.36 129.39,288.49 129.35,287.62 129.32,286.75 
		129.28,285.88 129.26,285.01 129.23,284.15 129.2,283.28 129.17,282.41 129.13,281.54 129.09,280.67 129.03,279.8 128.96,278.93 
		128.85,278.06 128.71,277.19 128.54,276.32 128.32,275.45 128.06,274.58 127.77,273.71 127.45,272.85 127.13,271.98 126.8,271.11 
		126.5,270.24 126.24,269.37 126.02,268.5 125.86,267.63 125.75,266.76 125.69,265.89 125.67,265.02 125.67,264.15 125.68,263.28 
		125.68,262.42 125.67,261.55 125.63,260.68 125.56,259.81 125.47,258.94 125.35,258.07 125.21,257.2 125.04,256.33 124.85,255.46 
		124.61,254.59 124.34,253.72 124,252.85 123.61,251.98 123.17,251.12 122.66,250.25 122.09,249.38 121.48,248.51 120.83,247.64 
		120.15,246.77 119.45,245.9 118.75,245.03 118.05,244.16 117.35,243.29 116.68,242.42 116.04,241.55 115.42,240.69 114.84,239.82 
		114.28,238.95 113.75,238.08 113.23,237.21 112.71,236.34 112.18,235.47 111.59,234.6 110.95,233.73 110.21,232.86 109.36,231.99 
		108.39,231.12 107.31,230.25 106.14,229.39 104.89,228.52 103.59,227.65 102.29,226.78 101.01,225.91 99.78,225.04 98.61,224.17 
		97.5,223.3 96.44,222.43 95.41,221.56 94.38,220.69 93.32,219.82 92.23,218.95 91.08,218.09 89.89,217.22 88.66,216.35 
		87.41,215.48 86.19,214.61 85.02,213.74 83.94,212.87 82.98,212 82.17,211.13 81.53,210.26 81.06,209.39 80.76,208.52 80.6,207.66 
		80.56,206.79 80.63,205.92 80.79,205.05 81.03,204.18 81.35,203.31 81.76,202.44 82.29,201.57 82.95,200.7 83.78,199.83 
		84.81,198.96 86.05,198.09 87.5,197.22 89.16,196.36 91,195.49 93,194.62 95.12,193.75 97.32,192.88 99.55,192.01 101.79,191.14 
		103.98,190.27 106.09,189.4 108.1,188.53 109.97,187.66 111.71,186.79 113.32,185.93 114.8,185.06 116.17,184.19 117.44,183.32 
		118.64,182.45 119.78,181.58 120.87,180.71 121.93,179.84 122.95,178.97 123.93,178.1 124.85,177.23 125.71,176.36 126.5,175.49 
		127.2,174.63 127.8,173.76 128.32,172.89 128.74,172.02 129.07,171.15 129.34,170.28 129.53,169.41 129.68,168.54 129.78,167.67 
		129.85,166.8 129.89,165.93 129.92,165.06 129.94,164.19 129.95,163.33 129.96,162.46 129.98,162.46 129.98,163.33 129.99,164.19 
		130.01,165.06 130.04,165.93 130.09,166.8 130.16,167.67 130.26,168.54 130.4,169.41 130.6,170.28 130.86,171.15 131.2,172.02 
		131.62,172.89 132.13,173.76 132.74,174.63 133.43,175.49 134.22,176.36 135.08,177.23 136.01,178.1 136.99,178.97 138.01,179.84 
		139.06,180.71 140.15,181.58 141.29,182.45 142.49,183.32 143.76,184.19 145.13,185.06 146.61,185.93 148.22,186.79 149.96,187.66 
		151.84,188.53 153.84,189.4 155.96,190.27 158.15,191.14 160.38,192.01 162.62,192.88 164.82,193.75 166.93,194.62 168.93,195.49 
		170.77,196.36 172.43,197.22 173.88,198.09 175.12,198.96 176.16,199.83 176.98,200.7 177.65,201.57 178.17,202.44 178.59,203.31 
		178.91,204.18 179.15,205.05 179.3,205.92 179.37,206.79 179.34,207.66 179.17,208.52 178.87,209.39 178.4,210.26 177.77,211.13 
		176.95,212 175.99,212.87 174.91,213.74 173.74,214.61 172.52,215.48 171.28,216.35 170.05,217.22 168.85,218.09 167.7,218.95 
		166.61,219.82 165.56,220.69 164.53,221.56 163.5,222.43 162.44,223.3 161.32,224.17 160.15,225.04 158.92,225.91 157.64,226.78 
		156.34,227.65 155.05,228.52 153.8,229.39 152.62,230.25 151.54,231.12 150.57,231.99 149.72,232.86 148.99,233.73 148.34,234.6 
		147.76,235.47 147.22,236.34 146.7,237.21 146.18,238.08 145.65,238.95 145.1,239.82 144.51,240.69 143.9,241.55 143.25,242.42 
		142.58,243.29 141.89,244.16 141.19,245.03 140.48,245.9 139.78,246.77 139.1,247.64 138.45,248.51 137.84,249.38 137.28,250.25 
		136.77,251.12 136.32,251.98 135.93,252.85 135.6,253.72 135.32,254.59 135.09,255.46 134.89,256.33 134.72,257.2 134.58,258.07 
		134.46,258.94 134.37,259.81 134.31,260.68 134.27,261.55 134.25,262.42 134.26,263.28 134.27,264.15 134.27,265.02 134.25,265.89 
		134.18,266.76 134.07,267.63 133.91,268.5 133.69,269.37 133.43,270.24 133.13,271.11 132.81,271.98 132.48,272.85 132.16,273.71 
		131.87,274.58 131.61,275.45 131.39,276.32 131.22,277.19 131.08,278.06 130.98,278.93 130.9,279.8 130.84,280.67 130.8,281.54 
		130.76,282.41 130.73,283.28 130.71,284.15 130.68,285.01 130.65,285.88 130.62,286.75 130.58,287.62 130.54,288.49 130.5,289.36 
		130.46,290.23 130.41,291.1 130.36,291.97 130.31,292.84 130.26,293.71 130.21,294.58 130.16,295.45 130.12,296.31 130.08,297.18 
		130.05,298.05 130.03,298.92 130.01,299.79 130,300.66 129.99,301.53 129.98,302.4 129.97,303.27 129.97,304.14 129.97,305.01 
		129.97,305.88 129.97,306.74 129.97,307.61 129.97,308.48 129.97,309.35 129.97,310.22 129.97,311.09 129.97,311.96 129.97,312.83 
		129.97,313.7 129.97,314.57 129.98,315.44 129.99,316.31 130,317.18 130.02,318.04 130.04,318.91 130.07,319.78 130.12,320.65 
		130.17,321.52 130.23,322.39 130.3,323.26 130.37,324.13 130.45,325 130.52,325.87 130.58,326.74 130.63,327.61 130.66,328.47 
		130.66,329.34 130.65,330.21 130.61,331.08 130.56,331.95 130.5,332.82 130.42,333.69 130.35,334.56 130.28,335.43 130.21,336.3 
		130.15,337.17 130.1,338.04 130.07,338.91 130.04,339.77 130.02,340.64 130.01,341.51 130.01,342.38 130.01,343.25 130.03,344.12 
		130.05,344.99 130.09,345.86 130.13,346.73 130.18,347.6 130.25,348.47 130.32,349.34 130.39,350.21 130.47,351.07 130.54,351.94 
		130.6,352.81 130.64,353.68 130.67,354.55 130.68,355.42 130.67,356.29 130.64,357.16 130.6,358.03 130.56,358.9 130.51,359.77 
		130.47,360.64 130.44,361.5 130.41,362.37 130.39,363.24 130.38,364.11 130.37,364.98 130.36,365.85 130.35,366.72 130.34,367.59 
		130.32,368.46 130.29,369.33 130.26,370.2 130.22,371.07 130.18,371.94 130.14,372.8 130.11,373.67 130.07,374.54 130.05,375.41 
		130.02,376.28 130.01,377.15 129.99,378.02 129.98,378.89 129.98,379.76 129.97,380.63 129.97,381.5 129.97,382.37 129.97,383.24 
		129.97,384.1 129.97,384.97 129.97,385.84 129.97,386.71 129.97,387.58 129.97,388.45 129.97,389.32 129.97,390.19 129.97,391.06 
		129.97,391.93 129.97,392.8 129.97,393.67 129.97,394.53 129.97,395.4 129.97,396.27 129.97,397.14 129.97,398.01 129.97,398.88 
		129.97,399.75 129.97,400.62 129.97,401.49 129.97,402.36 129.97,403.23 129.97,404.1 129.97,404.97 129.97,405.83 129.97,406.7 
		129.97,407.57 129.97,408.44 129.97,409.31 129.97,410.18 129.97,411.05 129.97,411.92 129.97,412.79 129.97,413.66 129.97,414.53 
		129.97,415.4 129.97,416.26 129.97,417.13 129.97,418 129.97,418.87 129.97,419.74 129.97,420.61 129.97,421.48 129.97,422.35 
		129.97,423.22 129.97,424.09 129.97,424.96 129.97,425.83 129.97,426.7 129.97,427.56 129.97,428.43 129.97,429.3 129.97,430.17 
		129.97,431.04 129.97,431.91 129.97,432.78 129.97,433.65 129.97,434.52 129.97,435.39 129.98,436.26 129.98,437.13 129.99,438 
		130,438.86 130.01,439.73 130.03,440.6 130.06,441.47 130.08,442.34 130.12,443.21 130.15,444.08 130.19,444.95 130.23,445.82 
		130.26,446.69 130.29,447.56 130.31,448.43 130.32,449.29 130.31,450.16 130.3,451.03 130.28,451.9 130.25,452.77 130.21,453.64 
		130.17,454.51 130.14,455.38 130.1,456.25 130.07,457.12 130.04,457.99 130.02,458.86 130.01,459.73 129.99,460.59 129.98,461.46 
		129.98,462.33 129.97,463.2 129.97,464.07 129.97,464.94 129.97,465.81 129.97,466.68 129.97,467.55 129.97,468.42 129.97,469.29 
		129.97,470.16 129.97,471.02 129.97,471.89 129.97,472.76 129.97,473.63 129.97,474.5 129.97,475.37 129.97,476.24 129.97,477.11 
		129.97,477.98 129.97,478.85 129.97,479.72 129.97,480.59 129.97,481.46 129.97,482.32 129.97,483.19 129.97,484.06 129.97,484.93 
		129.97,485.8 129.97,486.67 129.97,487.54 129.97,488.41 129.97,489.28 129.97,490.15 129.97,491.02 129.97,491.89 129.97,492.76 
		129.97,493.62 129.97,494.49 129.97,495.36 129.97,496.23 129.97,497.1 129.97,497.97 129.97,498.84 129.97,499.71 129.97,500.58 
		129.97,501.45 129.97,502.32 129.97,503.19 129.97,504.05 129.97,504.92 129.97,505.79 129.97,506.66 129.97,507.53 129.97,508.4 
		129.97,509.27 129.97,510.14 129.97,511.01 129.97,511.88 129.97,512.75 129.97,513.62 129.97,514.49 129.97,515.35 129.97,516.22 
		129.97,517.09 129.97,517.96 129.97,518.83 129.97,519.7 129.97,520.57 129.97,521.44 129.97,522.31 129.97,523.18 129.97,524.05 
		129.97,524.92 129.97,525.78 129.97,526.65 129.97,527.52 129.97,528.39 129.97,529.26 129.97,530.13 129.97,531 129.97,531.87 
		129.97,532.74 129.97,533.61 129.97,534.48 129.97,535.35 129.97,536.22 129.97,537.08 129.97,537.95 129.97,538.82 129.97,539.69 
		129.97,540.56 129.97,541.43 129.97,542.3 129.97,543.17 129.97,544.04 129.97,544.91 129.97,545.78 129.97,546.65 129.97,547.52 
		129.97,548.38 129.97,549.25 129.97,550.12 129.97,550.99 129.97,551.86 129.97,552.73 129.97,553.6 129.97,554.47 129.97,555.34 
		129.97,556.21 129.97,557.08 129.97,557.95 129.97,558.81 129.97,559.68 129.97,560.55 129.97,561.42 129.97,562.29 129.97,563.16 
		129.97,564.03 129.97,564.9 129.97,565.77 129.97,566.64 129.97,567.51 129.97,568.38 129.97,569.25 129.97,570.11 129.97,570.98 
		129.97,571.85 129.97,572.72 129.97,573.59 129.97,574.46 129.97,575.33 129.97,576.2 129.97,577.07 129.97,577.94 129.97,578.81 
		129.98,579.68 129.99,580.55 130,581.41 130.01,582.28 130.03,583.15 130.05,584.02 130.08,584.89 130.11,585.76 130.15,586.63 
		130.19,587.5 130.23,588.37 130.26,589.24 130.29,590.11 130.31,590.98 130.32,591.84 130.31,592.71 130.3,593.58 130.28,594.45 
		130.25,595.32 130.21,596.19 130.18,597.06 130.14,597.93 130.1,598.8 130.07,599.67 130.04,600.54 130.02,601.41 130.01,602.28 
		129.99,603.14 129.98,604.01 129.98,604.88 129.97,605.75 129.97,606.62 	"/>
	<polygon clip-path="url(#SVGID_2_)" fill="#E82546" points="239.75,385.99 239.75,385.54 239.75,385.1 239.75,384.65 
		239.75,384.21 239.74,383.76 239.74,383.31 239.74,382.87 239.73,382.42 239.73,381.98 239.72,381.53 239.72,381.09 239.71,380.64 
		239.7,380.19 239.7,379.75 239.69,379.3 239.68,378.86 239.66,378.41 239.65,377.97 239.64,377.52 239.62,377.07 239.61,376.63 
		239.59,376.18 239.58,375.74 239.56,375.29 239.54,374.85 239.52,374.4 239.5,373.95 239.48,373.51 239.47,373.06 239.45,372.62 
		239.43,372.17 239.41,371.73 239.4,371.28 239.38,370.83 239.37,370.39 239.36,369.94 239.34,369.5 239.33,369.05 239.33,368.61 
		239.32,368.16 239.32,367.72 239.31,367.27 239.31,366.82 239.31,366.38 239.31,365.93 239.31,365.49 239.31,365.04 239.31,364.6 
		239.31,364.15 239.32,363.7 239.32,363.26 239.32,362.81 239.32,362.37 239.32,361.92 239.32,361.48 239.32,361.03 239.32,360.58 
		239.32,360.14 239.32,359.69 239.32,359.25 239.31,358.8 239.31,358.36 239.31,357.91 239.31,357.46 239.31,357.02 239.31,356.57 
		239.31,356.13 239.31,355.68 239.31,355.24 239.32,354.79 239.32,354.34 239.33,353.9 239.34,353.45 239.35,353.01 239.36,352.56 
		239.37,352.12 239.38,351.67 239.39,351.22 239.41,350.78 239.42,350.33 239.43,349.89 239.44,349.44 239.45,349 239.46,348.55 
		239.47,348.1 239.48,347.66 239.48,347.21 239.48,346.77 239.49,346.32 239.49,345.88 239.48,345.43 239.48,344.98 239.48,344.54 
		239.47,344.09 239.46,343.65 239.45,343.2 239.44,342.76 239.43,342.31 239.42,341.86 239.41,341.42 239.4,340.97 239.39,340.53 
		239.38,340.08 239.37,339.64 239.36,339.19 239.36,338.74 239.35,338.3 239.35,337.85 239.35,337.41 239.35,336.96 239.36,336.52 
		239.36,336.07 239.37,335.62 239.38,335.18 239.39,334.73 239.4,334.29 239.42,333.84 239.43,333.4 239.45,332.95 239.47,332.51 
		239.49,332.06 239.51,331.61 239.52,331.17 239.54,330.72 239.56,330.28 239.58,329.83 239.59,329.39 239.61,328.94 239.62,328.49 
		239.64,328.05 239.65,327.6 239.66,327.16 239.68,326.71 239.69,326.27 239.7,325.82 239.7,325.37 239.71,324.93 239.72,324.48 
		239.72,324.04 239.73,323.59 239.73,323.15 239.74,322.7 239.74,322.25 239.74,321.81 239.75,321.36 239.75,320.92 239.75,320.47 
		239.75,320.03 239.75,319.58 239.75,319.13 239.75,318.69 239.75,318.24 239.75,317.8 239.75,317.35 239.75,316.91 239.75,316.46 
		239.75,316.01 239.75,315.57 239.75,315.12 239.74,314.68 239.74,314.23 239.74,313.79 239.73,313.34 239.73,312.89 239.72,312.45 
		239.71,312 239.7,311.56 239.69,311.11 239.68,310.67 239.67,310.22 239.65,309.77 239.63,309.33 239.61,308.88 239.59,308.44 
		239.56,307.99 239.53,307.55 239.5,307.1 239.46,306.65 239.42,306.21 239.38,305.76 239.33,305.32 239.28,304.87 239.23,304.43 
		239.17,303.98 239.11,303.53 239.04,303.09 238.98,302.64 238.91,302.2 238.84,301.75 238.76,301.31 238.69,300.86 238.61,300.41 
		238.54,299.97 238.46,299.52 238.38,299.08 238.31,298.63 238.24,298.19 238.16,297.74 238.09,297.3 238.03,296.85 237.96,296.4 
		237.9,295.96 237.84,295.51 237.79,295.07 237.74,294.62 237.69,294.18 237.65,293.73 237.61,293.28 237.57,292.84 237.54,292.39 
		237.5,291.95 237.48,291.5 237.45,291.06 237.42,290.61 237.4,290.16 237.38,289.72 237.36,289.27 237.34,288.83 237.32,288.38 
		237.3,287.94 237.28,287.49 237.26,287.04 237.24,286.6 237.22,286.15 237.2,285.71 237.17,285.26 237.15,284.82 237.12,284.37 
		237.09,283.92 237.05,283.48 237.02,283.03 236.98,282.59 236.94,282.14 236.89,281.7 236.84,281.25 236.79,280.8 236.74,280.36 
		236.69,279.91 236.63,279.47 236.57,279.02 236.51,278.58 236.44,278.13 236.38,277.68 236.31,277.24 236.24,276.79 236.17,276.35 
		236.1,275.9 236.03,275.46 235.96,275.01 235.88,274.56 235.81,274.12 235.73,273.67 235.65,273.23 235.57,272.78 235.5,272.34 
		235.42,271.89 235.34,271.44 235.25,271 235.17,270.55 235.09,270.11 235.01,269.66 234.93,269.22 234.84,268.77 234.76,268.32 
		234.68,267.88 234.6,267.43 234.51,266.99 234.43,266.54 234.35,266.1 234.27,265.65 234.19,265.2 234.12,264.76 234.04,264.31 
		233.96,263.87 233.89,263.42 233.82,262.98 233.74,262.53 233.67,262.08 233.59,261.64 233.51,261.19 233.43,260.75 233.35,260.3 
		233.26,259.86 233.16,259.41 233.05,258.97 232.94,258.52 232.81,258.07 232.67,257.63 232.51,257.18 232.34,256.74 232.15,256.29 
		231.93,255.85 231.69,255.4 231.43,254.95 231.15,254.51 230.84,254.06 230.5,253.62 230.13,253.17 229.74,252.73 229.32,252.28 
		228.88,251.83 228.41,251.39 227.91,250.94 227.39,250.5 226.85,250.05 226.29,249.61 225.72,249.16 225.14,248.71 224.54,248.27 
		223.94,247.82 223.33,247.38 222.73,246.93 222.12,246.49 221.53,246.04 220.94,245.59 220.36,245.15 219.79,244.7 219.24,244.26 
		218.7,243.81 218.18,243.37 217.68,242.92 217.19,242.47 216.73,242.03 216.27,241.58 215.84,241.14 215.42,240.69 215.01,240.25 
		214.62,239.8 214.23,239.35 213.85,238.91 213.47,238.46 213.1,238.02 212.73,237.57 212.36,237.13 211.98,236.68 211.6,236.23 
		211.21,235.79 210.81,235.34 210.4,234.9 209.99,234.45 209.56,234.01 209.12,233.56 208.67,233.11 208.21,232.67 207.74,232.22 
		207.25,231.78 206.76,231.33 206.26,230.89 205.75,230.44 205.23,229.99 204.7,229.55 204.17,229.1 203.63,228.66 203.09,228.21 
		202.54,227.77 201.99,227.32 201.44,226.87 200.89,226.43 200.34,225.98 199.79,225.54 199.24,225.09 198.69,224.65 198.15,224.2 
		197.61,223.76 197.08,223.31 196.56,222.86 196.04,222.42 195.54,221.97 195.05,221.53 194.58,221.08 194.12,220.64 193.68,220.19 
		193.26,219.74 192.87,219.3 192.49,218.85 192.15,218.41 191.82,217.96 191.54,217.52 191.28,217.07 191.05,216.62 190.85,216.18 
		190.68,215.73 190.55,215.29 190.45,214.84 190.39,214.4 190.35,213.95 190.35,213.5 190.38,213.06 190.43,212.61 190.52,212.17 
		190.63,211.72 190.77,211.28 190.92,210.83 191.09,210.38 191.28,209.94 191.48,209.49 191.69,209.05 191.9,208.6 192.12,208.16 
		192.33,207.71 192.55,207.26 192.76,206.82 192.96,206.37 193.15,205.93 193.33,205.48 193.5,205.04 193.66,204.59 193.8,204.14 
		193.94,203.7 194.06,203.25 194.18,202.81 194.29,202.36 194.4,201.92 194.51,201.47 194.62,201.02 194.74,200.58 194.88,200.13 
		195.04,199.69 195.22,199.24 195.44,198.8 195.69,198.35 195.97,197.9 196.3,197.46 196.68,197.01 197.12,196.57 197.61,196.12 
		198.15,195.68 198.75,195.23 199.4,194.78 200.12,194.34 200.9,193.89 201.74,193.45 202.62,193 203.55,192.56 204.52,192.11 
		205.54,191.66 206.6,191.22 207.68,190.77 208.78,190.33 209.9,189.88 211.03,189.44 212.17,188.99 213.3,188.55 214.44,188.1 
		215.56,187.65 216.66,187.21 217.75,186.76 218.82,186.32 219.85,185.87 220.87,185.43 221.85,184.98 222.81,184.53 223.73,184.09 
		224.61,183.64 225.47,183.2 226.29,182.75 227.08,182.31 227.84,181.86 228.57,181.41 229.27,180.97 229.93,180.52 230.57,180.08 
		231.19,179.63 231.77,179.19 232.33,178.74 232.86,178.29 233.36,177.85 233.84,177.4 234.3,176.96 234.74,176.51 235.14,176.07 
		235.53,175.62 235.89,175.17 236.23,174.73 236.56,174.28 236.86,173.84 237.13,173.39 237.39,172.95 237.63,172.5 237.86,172.05 
		238.06,171.61 238.25,171.16 238.42,170.72 238.58,170.27 238.72,169.83 238.85,169.38 238.96,168.93 239.07,168.49 239.16,168.04 
		239.24,167.6 239.31,167.15 239.38,166.71 239.43,166.26 239.48,165.81 239.52,165.37 239.56,164.92 239.59,164.48 239.62,164.03 
		239.64,163.59 239.66,163.14 239.68,162.69 239.69,162.25 239.7,161.8 239.71,161.36 239.72,160.91 239.73,160.47 239.73,160.02 
		239.74,159.57 239.74,159.13 239.75,158.68 239.75,158.24 239.77,158.24 239.77,158.68 239.77,159.13 239.77,159.57 239.78,160.02 
		239.78,160.47 239.79,160.91 239.8,161.36 239.81,161.8 239.82,162.25 239.83,162.69 239.85,163.14 239.87,163.59 239.89,164.03 
		239.92,164.48 239.95,164.92 239.99,165.37 240.03,165.81 240.08,166.26 240.14,166.71 240.2,167.15 240.27,167.6 240.36,168.04 
		240.45,168.49 240.55,168.93 240.67,169.38 240.8,169.83 240.94,170.27 241.09,170.72 241.26,171.16 241.45,171.61 241.66,172.05 
		241.88,172.5 242.12,172.95 242.38,173.39 242.66,173.84 242.96,174.28 243.28,174.73 243.62,175.17 243.99,175.62 244.37,176.07 
		244.78,176.51 245.21,176.96 245.67,177.4 246.15,177.85 246.66,178.29 247.19,178.74 247.74,179.19 248.33,179.63 248.94,180.08 
		249.58,180.52 250.25,180.97 250.94,181.41 251.67,181.86 252.43,182.31 253.22,182.75 254.05,183.2 254.9,183.64 255.79,184.09 
		256.71,184.53 257.66,184.98 258.65,185.43 259.66,185.87 260.7,186.32 261.76,186.76 262.85,187.21 263.96,187.65 265.08,188.1 
		266.21,188.55 267.35,188.99 268.48,189.44 269.61,189.88 270.73,190.33 271.84,190.77 272.92,191.22 273.97,191.66 274.99,192.11 
		275.96,192.56 276.89,193 277.78,193.45 278.61,193.89 279.39,194.34 280.11,194.78 280.77,195.23 281.36,195.68 281.91,196.12 
		282.4,196.57 282.83,197.01 283.21,197.46 283.54,197.9 283.83,198.35 284.08,198.8 284.29,199.24 284.47,199.69 284.63,200.13 
		284.77,200.58 284.89,201.02 285.01,201.47 285.12,201.92 285.22,202.36 285.33,202.81 285.45,203.25 285.57,203.7 285.71,204.14 
		285.85,204.59 286.01,205.04 286.18,205.48 286.36,205.93 286.55,206.37 286.76,206.82 286.96,207.26 287.18,207.71 287.4,208.16 
		287.61,208.6 287.83,209.05 288.04,209.49 288.24,209.94 288.42,210.38 288.59,210.83 288.75,211.28 288.88,211.72 288.99,212.17 
		289.08,212.61 289.14,213.06 289.16,213.5 289.16,213.95 289.13,214.4 289.06,214.84 288.97,215.29 288.83,215.73 288.66,216.18 
		288.46,216.62 288.24,217.07 287.98,217.52 287.69,217.96 287.37,218.41 287.02,218.85 286.65,219.3 286.25,219.74 285.83,220.19 
		285.39,220.64 284.94,221.08 284.46,221.53 283.97,221.97 283.47,222.42 282.96,222.86 282.43,223.31 281.9,223.76 281.37,224.2 
		280.82,224.65 280.28,225.09 279.73,225.54 279.18,225.98 278.62,226.43 278.07,226.87 277.52,227.32 276.97,227.77 276.43,228.21 
		275.88,228.66 275.35,229.1 274.81,229.55 274.29,229.99 273.77,230.44 273.26,230.89 272.75,231.33 272.26,231.78 271.78,232.22 
		271.3,232.67 270.84,233.11 270.39,233.56 269.95,234.01 269.53,234.45 269.11,234.9 268.7,235.34 268.3,235.79 267.91,236.23 
		267.53,236.68 267.16,237.13 266.78,237.57 266.41,238.02 266.04,238.46 265.67,238.91 265.28,239.35 264.9,239.8 264.5,240.25 
		264.09,240.69 263.68,241.14 263.24,241.58 262.79,242.03 262.32,242.47 261.83,242.92 261.33,243.37 260.81,243.81 260.28,244.26 
		259.72,244.7 259.16,245.15 258.58,245.59 257.99,246.04 257.39,246.49 256.79,246.93 256.18,247.38 255.58,247.82 254.97,248.27 
		254.38,248.71 253.79,249.16 253.22,249.61 252.66,250.05 252.13,250.5 251.61,250.94 251.11,251.39 250.64,251.83 250.19,252.28 
		249.77,252.73 249.38,253.17 249.01,253.62 248.67,254.06 248.36,254.51 248.08,254.95 247.82,255.4 247.58,255.85 247.37,256.29 
		247.17,256.74 247,257.18 246.84,257.63 246.7,258.07 246.58,258.52 246.46,258.97 246.35,259.41 246.26,259.86 246.17,260.3 
		246.08,260.75 246,261.19 245.92,261.64 245.85,262.08 245.77,262.53 245.7,262.98 245.62,263.42 245.55,263.87 245.47,264.31 
		245.4,264.76 245.32,265.2 245.24,265.65 245.16,266.1 245.08,266.54 245,266.99 244.92,267.43 244.84,267.88 244.75,268.32 
		244.67,268.77 244.59,269.22 244.5,269.66 244.42,270.11 244.34,270.55 244.26,271 244.18,271.44 244.1,271.89 244.02,272.34 
		243.94,272.78 243.86,273.23 243.78,273.67 243.71,274.12 243.63,274.56 243.56,275.01 243.48,275.46 243.41,275.9 243.34,276.35 
		243.27,276.79 243.2,277.24 243.13,277.68 243.07,278.13 243.01,278.58 242.94,279.02 242.88,279.47 242.83,279.91 242.77,280.36 
		242.72,280.8 242.67,281.25 242.62,281.7 242.58,282.14 242.54,282.59 242.5,283.03 242.46,283.48 242.43,283.92 242.4,284.37 
		242.37,284.82 242.34,285.26 242.31,285.71 242.29,286.15 242.27,286.6 242.25,287.04 242.23,287.49 242.21,287.94 242.19,288.38 
		242.17,288.83 242.15,289.27 242.13,289.72 242.11,290.16 242.09,290.61 242.06,291.06 242.04,291.5 242.01,291.95 241.98,292.39 
		241.94,292.84 241.91,293.28 241.86,293.73 241.82,294.18 241.77,294.62 241.72,295.07 241.67,295.51 241.61,295.96 241.55,296.4 
		241.49,296.85 241.42,297.3 241.35,297.74 241.28,298.19 241.2,298.63 241.13,299.08 241.05,299.52 240.98,299.97 240.9,300.41 
		240.83,300.86 240.75,301.31 240.68,301.75 240.61,302.2 240.54,302.64 240.47,303.09 240.41,303.53 240.34,303.98 240.29,304.43 
		240.23,304.87 240.18,305.32 240.13,305.76 240.09,306.21 240.05,306.65 240.01,307.1 239.98,307.55 239.95,307.99 239.92,308.44 
		239.9,308.88 239.88,309.33 239.86,309.77 239.85,310.22 239.83,310.67 239.82,311.11 239.81,311.56 239.8,312 239.79,312.45 
		239.79,312.89 239.78,313.34 239.78,313.79 239.77,314.23 239.77,314.68 239.77,315.12 239.76,315.57 239.76,316.01 239.76,316.46 
		239.76,316.91 239.76,317.35 239.76,317.8 239.76,318.24 239.76,318.69 239.76,319.13 239.76,319.58 239.76,320.03 239.76,320.47 
		239.77,320.92 239.77,321.36 239.77,321.81 239.77,322.25 239.78,322.7 239.78,323.15 239.78,323.59 239.79,324.04 239.8,324.48 
		239.8,324.93 239.81,325.37 239.82,325.82 239.83,326.27 239.84,326.71 239.85,327.16 239.86,327.6 239.87,328.05 239.89,328.49 
		239.9,328.94 239.92,329.39 239.94,329.83 239.95,330.28 239.97,330.72 239.99,331.17 240.01,331.61 240.03,332.06 240.04,332.51 
		240.06,332.95 240.08,333.4 240.09,333.84 240.11,334.29 240.12,334.73 240.13,335.18 240.14,335.62 240.15,336.07 240.16,336.52 
		240.16,336.96 240.16,337.41 240.16,337.85 240.16,338.3 240.16,338.74 240.15,339.19 240.14,339.64 240.14,340.08 240.13,340.53 
		240.12,340.97 240.11,341.42 240.09,341.86 240.08,342.31 240.07,342.76 240.06,343.2 240.05,343.65 240.05,344.09 240.04,344.54 
		240.03,344.98 240.03,345.43 240.03,345.88 240.03,346.32 240.03,346.77 240.03,347.21 240.04,347.66 240.04,348.1 240.05,348.55 
		240.06,349 240.07,349.44 240.08,349.89 240.1,350.33 240.11,350.78 240.12,351.22 240.13,351.67 240.14,352.12 240.16,352.56 
		240.17,353.01 240.17,353.45 240.18,353.9 240.19,354.34 240.2,354.79 240.2,355.24 240.2,355.68 240.21,356.13 240.21,356.57 
		240.21,357.02 240.21,357.46 240.2,357.91 240.2,358.36 240.2,358.8 240.2,359.25 240.2,359.69 240.19,360.14 240.19,360.58 
		240.19,361.03 240.19,361.48 240.19,361.92 240.19,362.37 240.19,362.81 240.19,363.26 240.2,363.7 240.2,364.15 240.2,364.6 
		240.2,365.04 240.2,365.49 240.2,365.93 240.2,366.38 240.2,366.82 240.2,367.27 240.2,367.72 240.19,368.16 240.19,368.61 
		240.18,369.05 240.17,369.5 240.16,369.94 240.15,370.39 240.13,370.83 240.12,371.28 240.1,371.73 240.08,372.17 240.07,372.62 
		240.05,373.06 240.03,373.51 240.01,373.95 239.99,374.4 239.97,374.85 239.95,375.29 239.94,375.74 239.92,376.18 239.9,376.63 
		239.89,377.07 239.87,377.52 239.86,377.97 239.85,378.41 239.84,378.86 239.83,379.3 239.82,379.75 239.81,380.19 239.8,380.64 
		239.79,381.09 239.79,381.53 239.78,381.98 239.78,382.42 239.78,382.87 239.77,383.31 239.77,383.76 239.77,384.21 239.77,384.65 
		239.76,385.1 239.76,385.54 239.76,385.99 	"/>
	
		<polygon clip-path="url(#SVGID_2_)" fill="none" stroke="#333333" stroke-width="1.07" stroke-linecap="round" stroke-linejoin="round" stroke-miterlimit="10" points="
		239.75,385.99 239.75,385.54 239.75,385.1 239.75,384.65 239.75,384.21 239.74,383.76 239.74,383.31 239.74,382.87 239.73,382.42 
		239.73,381.98 239.72,381.53 239.72,381.09 239.71,380.64 239.7,380.19 239.7,379.75 239.69,379.3 239.68,378.86 239.66,378.41 
		239.65,377.97 239.64,377.52 239.62,377.07 239.61,376.63 239.59,376.18 239.58,375.74 239.56,375.29 239.54,374.85 239.52,374.4 
		239.5,373.95 239.48,373.51 239.47,373.06 239.45,372.62 239.43,372.17 239.41,371.73 239.4,371.28 239.38,370.83 239.37,370.39 
		239.36,369.94 239.34,369.5 239.33,369.05 239.33,368.61 239.32,368.16 239.32,367.72 239.31,367.27 239.31,366.82 239.31,366.38 
		239.31,365.93 239.31,365.49 239.31,365.04 239.31,364.6 239.31,364.15 239.32,363.7 239.32,363.26 239.32,362.81 239.32,362.37 
		239.32,361.92 239.32,361.48 239.32,361.03 239.32,360.58 239.32,360.14 239.32,359.69 239.32,359.25 239.31,358.8 239.31,358.36 
		239.31,357.91 239.31,357.46 239.31,357.02 239.31,356.57 239.31,356.13 239.31,355.68 239.31,355.24 239.32,354.79 239.32,354.34 
		239.33,353.9 239.34,353.45 239.35,353.01 239.36,352.56 239.37,352.12 239.38,351.67 239.39,351.22 239.41,350.78 239.42,350.33 
		239.43,349.89 239.44,349.44 239.45,349 239.46,348.55 239.47,348.1 239.48,347.66 239.48,347.21 239.48,346.77 239.49,346.32 
		239.49,345.88 239.48,345.43 239.48,344.98 239.48,344.54 239.47,344.09 239.46,343.65 239.45,343.2 239.44,342.76 239.43,342.31 
		239.42,341.86 239.41,341.42 239.4,340.97 239.39,340.53 239.38,340.08 239.37,339.64 239.36,339.19 239.36,338.74 239.35,338.3 
		239.35,337.85 239.35,337.41 239.35,336.96 239.36,336.52 239.36,336.07 239.37,335.62 239.38,335.18 239.39,334.73 239.4,334.29 
		239.42,333.84 239.43,333.4 239.45,332.95 239.47,332.51 239.49,332.06 239.51,331.61 239.52,331.17 239.54,330.72 239.56,330.28 
		239.58,329.83 239.59,329.39 239.61,328.94 239.62,328.49 239.64,328.05 239.65,327.6 239.66,327.16 239.68,326.71 239.69,326.27 
		239.7,325.82 239.7,325.37 239.71,324.93 239.72,324.48 239.72,324.04 239.73,323.59 239.73,323.15 239.74,322.7 239.74,322.25 
		239.74,321.81 239.75,321.36 239.75,320.92 239.75,320.47 239.75,320.03 239.75,319.58 239.75,319.13 239.75,318.69 239.75,318.24 
		239.75,317.8 239.75,317.35 239.75,316.91 239.75,316.46 239.75,316.01 239.75,315.57 239.75,315.12 239.74,314.68 239.74,314.23 
		239.74,313.79 239.73,313.34 239.73,312.89 239.72,312.45 239.71,312 239.7,311.56 239.69,311.11 239.68,310.67 239.67,310.22 
		239.65,309.77 239.63,309.33 239.61,308.88 239.59,308.44 239.56,307.99 239.53,307.55 239.5,307.1 239.46,306.65 239.42,306.21 
		239.38,305.76 239.33,305.32 239.28,304.87 239.23,304.43 239.17,303.98 239.11,303.53 239.04,303.09 238.98,302.64 238.91,302.2 
		238.84,301.75 238.76,301.31 238.69,300.86 238.61,300.41 238.54,299.97 238.46,299.52 238.38,299.08 238.31,298.63 238.24,298.19 
		238.16,297.74 238.09,297.3 238.03,296.85 237.96,296.4 237.9,295.96 237.84,295.51 237.79,295.07 237.74,294.62 237.69,294.18 
		237.65,293.73 237.61,293.28 237.57,292.84 237.54,292.39 237.5,291.95 237.48,291.5 237.45,291.06 237.42,290.61 237.4,290.16 
		237.38,289.72 237.36,289.27 237.34,288.83 237.32,288.38 237.3,287.94 237.28,287.49 237.26,287.04 237.24,286.6 237.22,286.15 
		237.2,285.71 237.17,285.26 237.15,284.82 237.12,284.37 237.09,283.92 237.05,283.48 237.02,283.03 236.98,282.59 236.94,282.14 
		236.89,281.7 236.84,281.25 236.79,280.8 236.74,280.36 236.69,279.91 236.63,279.47 236.57,279.02 236.51,278.58 236.44,278.13 
		236.38,277.68 236.31,277.24 236.24,276.79 236.17,276.35 236.1,275.9 236.03,275.46 235.96,275.01 235.88,274.56 235.81,274.12 
		235.73,273.67 235.65,273.23 235.57,272.78 235.5,272.34 235.42,271.89 235.34,271.44 235.25,271 235.17,270.55 235.09,270.11 
		235.01,269.66 234.93,269.22 234.84,268.77 234.76,268.32 234.68,267.88 234.6,267.43 234.51,266.99 234.43,266.54 234.35,266.1 
		234.27,265.65 234.19,265.2 234.12,264.76 234.04,264.31 233.96,263.87 233.89,263.42 233.82,262.98 233.74,262.53 233.67,262.08 
		233.59,261.64 233.51,261.19 233.43,260.75 233.35,260.3 233.26,259.86 233.16,259.41 233.05,258.97 232.94,258.52 232.81,258.07 
		232.67,257.63 232.51,257.18 232.34,256.74 232.15,256.29 231.93,255.85 231.69,255.4 231.43,254.95 231.15,254.51 230.84,254.06 
		230.5,253.62 230.13,253.17 229.74,252.73 229.32,252.28 228.88,251.83 228.41,251.39 227.91,250.94 227.39,250.5 226.85,250.05 
		226.29,249.61 225.72,249.16 225.14,248.71 224.54,248.27 223.94,247.82 223.33,247.38 222.73,246.93 222.12,246.49 221.53,246.04 
		220.94,245.59 220.36,245.15 219.79,244.7 219.24,244.26 218.7,243.81 218.18,243.37 217.68,242.92 217.19,242.47 216.73,242.03 
		216.27,241.58 215.84,241.14 215.42,240.69 215.01,240.25 214.62,239.8 214.23,239.35 213.85,238.91 213.47,238.46 213.1,238.02 
		212.73,237.57 212.36,237.13 211.98,236.68 211.6,236.23 211.21,235.79 210.81,235.34 210.4,234.9 209.99,234.45 209.56,234.01 
		209.12,233.56 208.67,233.11 208.21,232.67 207.74,232.22 207.25,231.78 206.76,231.33 206.26,230.89 205.75,230.44 205.23,229.99 
		204.7,229.55 204.17,229.1 203.63,228.66 203.09,228.21 202.54,227.77 201.99,227.32 201.44,226.87 200.89,226.43 200.34,225.98 
		199.79,225.54 199.24,225.09 198.69,224.65 198.15,224.2 197.61,223.76 197.08,223.31 196.56,222.86 196.04,222.42 195.54,221.97 
		195.05,221.53 194.58,221.08 194.12,220.64 193.68,220.19 193.26,219.74 192.87,219.3 192.49,218.85 192.15,218.41 191.82,217.96 
		191.54,217.52 191.28,217.07 191.05,216.62 190.85,216.18 190.68,215.73 190.55,215.29 190.45,214.84 190.39,214.4 190.35,213.95 
		190.35,213.5 190.38,213.06 190.43,212.61 190.52,212.17 190.63,211.72 190.77,211.28 190.92,210.83 191.09,210.38 191.28,209.94 
		191.48,209.49 191.69,209.05 191.9,208.6 192.12,208.16 192.33,207.71 192.55,207.26 192.76,206.82 192.96,206.37 193.15,205.93 
		193.33,205.48 193.5,205.04 193.66,204.59 193.8,204.14 193.94,203.7 194.06,203.25 194.18,202.81 194.29,202.36 194.4,201.92 
		194.51,201.47 194.62,201.02 194.74,200.58 194.88,200.13 195.04,199.69 195.22,199.24 195.44,198.8 195.69,198.35 195.97,197.9 
		196.3,197.46 196.68,197.01 197.12,196.57 197.61,196.12 198.15,195.68 198.75,195.23 199.4,194.78 200.12,194.34 200.9,193.89 
		201.74,193.45 202.62,193 203.55,192.56 204.52,192.11 205.54,191.66 206.6,191.22 207.68,190.77 208.78,190.33 209.9,189.88 
		211.03,189.44 212.17,188.99 213.3,188.55 214.44,188.1 215.56,187.65 216.66,187.21 217.75,186.76 218.82,186.32 219.85,185.87 
		220.87,185.43 221.85,184.98 222.81,184.53 223.73,184.09 224.61,183.64 225.47,183.2 226.29,182.75 227.08,182.31 227.84,181.86 
		228.57,181.41 229.27,180.97 229.93,180.52 230.57,180.08 231.19,179.63 231.77,179.19 232.33,178.74 232.86,178.29 233.36,177.85 
		233.84,177.4 234.3,176.96 234.74,176.51 235.14,176.07 235.53,175.62 235.89,175.17 236.23,174.73 236.56,174.28 236.86,173.84 
		237.13,173.39 237.39,172.95 237.63,172.5 237.86,172.05 238.06,171.61 238.25,171.16 238.42,170.72 238.58,170.27 238.72,169.83 
		238.85,169.38 238.96,168.93 239.07,168.49 239.16,168.04 239.24,167.6 239.31,167.15 239.38,166.71 239.43,166.26 239.48,165.81 
		239.52,165.37 239.56,164.92 239.59,164.48 239.62,164.03 239.64,163.59 239.66,163.14 239.68,162.69 239.69,162.25 239.7,161.8 
		239.71,161.36 239.72,160.91 239.73,160.47 239.73,160.02 239.74,159.57 239.74,159.13 239.75,158.68 239.75,158.24 239.77,158.24 
		239.77,158.68 239.77,159.13 239.77,159.57 239.78,160.02 239.78,160.47 239.79,160.91 239.8,161.36 239.81,161.8 239.82,162.25 
		239.83,162.69 239.85,163.14 239.87,163.59 239.89,164.03 239.92,164.48 239.95,164.92 239.99,165.37 240.03,165.81 240.08,166.26 
		240.14,166.71 240.2,167.15 240.27,167.6 240.36,168.04 240.45,168.49 240.55,168.93 240.67,169.38 240.8,169.83 240.94,170.27 
		241.09,170.72 241.26,171.16 241.45,171.61 241.66,172.05 241.88,172.5 242.12,172.95 242.38,173.39 242.66,173.84 242.96,174.28 
		243.28,174.73 243.62,175.17 243.99,175.62 244.37,176.07 244.78,176.51 245.21,176.96 245.67,177.4 246.15,177.85 246.66,178.29 
		247.19,178.74 247.74,179.19 248.33,179.63 248.94,180.08 249.58,180.52 250.25,180.97 250.94,181.41 251.67,181.86 252.43,182.31 
		253.22,182.75 254.05,183.2 254.9,183.64 255.79,184.09 256.71,184.53 257.66,184.98 258.65,185.43 259.66,185.87 260.7,186.32 
		261.76,186.76 262.85,187.21 263.96,187.65 265.08,188.1 266.21,188.55 267.35,188.99 268.48,189.44 269.61,189.88 270.73,190.33 
		271.84,190.77 272.92,191.22 273.97,191.66 274.99,192.11 275.96,192.56 276.89,193 277.78,193.45 278.61,193.89 279.39,194.34 
		280.11,194.78 280.77,195.23 281.36,195.68 281.91,196.12 282.4,196.57 282.83,197.01 283.21,197.46 283.54,197.9 283.83,198.35 
		284.08,198.8 284.29,199.24 284.47,199.69 284.63,200.13 284.77,200.58 284.89,201.02 285.01,201.47 285.12,201.92 285.22,202.36 
		285.33,202.81 285.45,203.25 285.57,203.7 285.71,204.14 285.85,204.59 286.01,205.04 286.18,205.48 286.36,205.93 286.55,206.37 
		286.76,206.82 286.96,207.26 287.18,207.71 287.4,208.16 287.61,208.6 287.83,209.05 288.04,209.49 288.24,209.94 288.42,210.38 
		288.59,210.83 288.75,211.28 288.88,211.72 288.99,212.17 289.08,212.61 289.14,213.06 289.16,213.5 289.16,213.95 289.13,214.4 
		289.06,214.84 288.97,215.29 288.83,215.73 288.66,216.18 288.46,216.62 288.24,217.07 287.98,217.52 287.69,217.96 287.37,218.41 
		287.02,218.85 286.65,219.3 286.25,219.74 285.83,220.19 285.39,220.64 284.94,221.08 284.46,221.53 283.97,221.97 283.47,222.42 
		282.96,222.86 282.43,223.31 281.9,223.76 281.37,224.2 280.82,224.65 280.28,225.09 279.73,225.54 279.18,225.98 278.62,226.43 
		278.07,226.87 277.52,227.32 276.97,227.77 276.43,228.21 275.88,228.66 275.35,229.1 274.81,229.55 274.29,229.99 273.77,230.44 
		273.26,230.89 272.75,231.33 272.26,231.78 271.78,232.22 271.3,232.67 270.84,233.11 270.39,233.56 269.95,234.01 269.53,234.45 
		269.11,234.9 268.7,235.34 268.3,235.79 267.91,236.23 267.53,236.68 267.16,237.13 266.78,237.57 266.41,238.02 266.04,238.46 
		265.67,238.91 265.28,239.35 264.9,239.8 264.5,240.25 264.09,240.69 263.68,241.14 263.24,241.58 262.79,242.03 262.32,242.47 
		261.83,242.92 261.33,243.37 260.81,243.81 260.28,244.26 259.72,244.7 259.16,245.15 258.58,245.59 257.99,246.04 257.39,246.49 
		256.79,246.93 256.18,247.38 255.58,247.82 254.97,248.27 254.38,248.71 253.79,249.16 253.22,249.61 252.66,250.05 252.13,250.5 
		251.61,250.94 251.11,251.39 250.64,251.83 250.19,252.28 249.77,252.73 249.38,253.17 249.01,253.62 248.67,254.06 248.36,254.51 
		248.08,254.95 247.82,255.4 247.58,255.85 247.37,256.29 247.17,256.74 247,257.18 246.84,257.63 246.7,258.07 246.58,258.52 
		246.46,258.97 246.35,259.41 246.26,259.86 246.17,260.3 246.08,260.75 246,261.19 245.92,261.64 245.85,262.08 245.77,262.53 
		245.7,262.98 245.62,263.42 245.55,263.87 245.47,264.31 245.4,264.76 245.32,265.2 245.24,265.65 245.16,266.1 245.08,266.54 
		245,266.99 244.92,267.43 244.84,267.88 244.75,268.32 244.67,268.77 244.59,269.22 244.5,269.66 244.42,270.11 244.34,270.55 
		244.26,271 244.18,271.44 244.1,271.89 244.02,272.34 243.94,272.78 243.86,273.23 243.78,273.67 243.71,274.12 243.63,274.56 
		243.56,275.01 243.48,275.46 243.41,275.9 243.34,276.35 243.27,276.79 243.2,277.24 243.13,277.68 243.07,278.13 243.01,278.58 
		242.94,279.02 242.88,279.47 242.83,279.91 242.77,280.36 242.72,280.8 242.67,281.25 242.62,281.7 242.58,282.14 242.54,282.59 
		242.5,283.03 242.46,283.48 242.43,283.92 242.4,284.37 242.37,284.82 242.34,285.26 242.31,285.71 242.29,286.15 242.27,286.6 
		242.25,287.04 242.23,287.49 242.21,287.94 242.19,288.38 242.17,288.83 242.15,289.27 242.13,289.72 242.11,290.16 242.09,290.61 
		242.06,291.06 242.04,291.5 242.01,291.95 241.98,292.39 241.94,292.84 241.91,293.28 241.86,293.73 241.82,294.18 241.77,294.62 
		241.72,295.07 241.67,295.51 241.61,295.96 241.55,296.4 241.49,296.85 241.42,297.3 241.35,297.74 241.28,298.19 241.2,298.63 
		241.13,299.08 241.05,299.52 240.98,299.97 240.9,300.41 240.83,300.86 240.75,301.31 240.68,301.75 240.61,302.2 240.54,302.64 
		240.47,303.09 240.41,303.53 240.34,303.98 240.29,304.43 240.23,304.87 240.18,305.32 240.13,305.76 240.09,306.21 240.05,306.65 
		240.01,307.1 239.98,307.55 239.95,307.99 239.92,308.44 239.9,308.88 239.88,309.33 239.86,309.77 239.85,310.22 239.83,310.67 
		239.82,311.11 239.81,311.56 239.8,312 239.79,312.45 239.79,312.89 239.78,313.34 239.78,313.79 239.77,314.23 239.77,314.68 
		239.77,315.12 239.76,315.57 239.76,316.01 239.76,316.46 239.76,316.91 239.76,317.35 239.76,317.8 239.76,318.24 239.76,318.69 
		239.76,319.13 239.76,319.58 239.76,320.03 239.76,320.47 239.77,320.92 239.77,321.36 239.77,321.81 239.77,322.25 239.78,322.7 
		239.78,323.15 239.78,323.59 239.79,324.04 239.8,324.48 239.8,324.93 239.81,325.37 239.82,325.82 239.83,326.27 239.84,326.71 
		239.85,327.16 239.86,327.6 239.87,328.05 239.89,328.49 239.9,328.94 239.92,329.39 239.94,329.83 239.95,330.28 239.97,330.72 
		239.99,331.17 240.01,331.61 240.03,332.06 240.04,332.51 240.06,332.95 240.08,333.4 240.09,333.84 240.11,334.29 240.12,334.73 
		240.13,335.18 240.14,335.62 240.15,336.07 240.16,336.52 240.16,336.96 240.16,337.41 240.16,337.85 240.16,338.3 240.16,338.74 
		240.15,339.19 240.14,339.64 240.14,340.08 240.13,340.53 240.12,340.97 240.11,341.42 240.09,341.86 240.08,342.31 240.07,342.76 
		240.06,343.2 240.05,343.65 240.05,344.09 240.04,344.54 240.03,344.98 240.03,345.43 240.03,345.88 240.03,346.32 240.03,346.77 
		240.03,347.21 240.04,347.66 240.04,348.1 240.05,348.55 240.06,349 240.07,349.44 240.08,349.89 240.1,350.33 240.11,350.78 
		240.12,351.22 240.13,351.67 240.14,352.12 240.16,352.56 240.17,353.01 240.17,353.45 240.18,353.9 240.19,354.34 240.2,354.79 
		240.2,355.24 240.2,355.68 240.21,356.13 240.21,356.57 240.21,357.02 240.21,357.46 240.2,357.91 240.2,358.36 240.2,358.8 
		240.2,359.25 240.2,359.69 240.19,360.14 240.19,360.58 240.19,361.03 240.19,361.48 240.19,361.92 240.19,362.37 240.19,362.81 
		240.19,363.26 240.2,363.7 240.2,364.15 240.2,364.6 240.2,365.04 240.2,365.49 240.2,365.93 240.2,366.38 240.2,366.82 
		240.2,367.27 240.2,367.72 240.19,368.16 240.19,368.61 240.18,369.05 240.17,369.5 240.16,369.94 240.15,370.39 240.13,370.83 
		240.12,371.28 240.1,371.73 240.08,372.17 240.07,372.62 240.05,373.06 240.03,373.51 240.01,373.95 239.99,374.4 239.97,374.85 
		239.95,375.29 239.94,375.74 239.92,376.18 239.9,376.63 239.89,377.07 239.87,377.52 239.86,377.97 239.85,378.41 239.84,378.86 
		239.83,379.3 239.82,379.75 239.81,380.19 239.8,380.64 239.79,381.09 239.79,381.53 239.78,381.98 239.78,382.42 239.78,382.87 
		239.77,383.31 239.77,383.76 239.77,384.21 239.77,384.65 239.76,385.1 239.76,385.54 239.76,385.99 	"/>
	
		<line clip-path="url(#SVGID_2_)" fill="none" stroke="#333333" stroke-width="1.07" stroke-linejoin="round" stroke-miterlimit="10" x1="129.97" y1="199.97" x2="129.97" y2="176.95"/>
	
		<line clip-path="url(#SVGID_2_)" fill="none" stroke="#333333" stroke-width="1.07" stroke-linejoin="round" stroke-miterlimit="10" x1="129.97" y1="225.14" x2="129.97" y2="259"/>
	<rect x="118.99" y="199.97" clip-path="url(#SVGID_2_)" fill="#FFFFFF" width="21.96" height="25.17"/>
	
		<rect x="118.99" y="199.97" clip-path="url(#SVGID_2_)" fill="none" stroke="#333333" stroke-width="1.07" stroke-linecap="round" stroke-linejoin="round" stroke-miterlimit="10" width="21.96" height="25.17"/>
	
		<line clip-path="url(#SVGID_2_)" fill="none" stroke="#333333" stroke-width="2.13" stroke-linejoin="round" stroke-miterlimit="10" x1="118.99" y1="210.92" x2="140.95" y2="210.92"/>
	
		<line clip-path="url(#SVGID_2_)" fill="none" stroke="#333333" stroke-width="1.07" stroke-linejoin="round" stroke-miterlimit="10" x1="239.76" y1="200.99" x2="239.76" y2="176.05"/>
	
		<line clip-path="url(#SVGID_2_)" fill="none" stroke="#333333" stroke-width="1.07" stroke-linejoin="round" stroke-miterlimit="10" x1="239.76" y1="231.04" x2="239.76" y2="274.96"/>
	<rect x="228.78" y="200.99" clip-path="url(#SVGID_2_)" fill="#FFFFFF" width="21.96" height="30.05"/>
	
		<rect x="228.78" y="200.99" clip-path="url(#SVGID_2_)" fill="none" stroke="#333333" stroke-width="1.07" stroke-linecap="round" stroke-linejoin="round" stroke-miterlimit="10" width="21.96" height="30.05"/>
	
		<line clip-path="url(#SVGID_2_)" fill="none" stroke="#333333" stroke-width="2.13" stroke-linejoin="round" stroke-miterlimit="10" x1="228.78" y1="215.23" x2="250.74" y2="215.23"/>
	<g clip-path="url(#SVGID_2_)">
	</g>
	
		<line clip-path="url(#SVGID_2_)" fill="none" stroke="#FF0000" stroke-width="0.71" stroke-linecap="round" stroke-linejoin="round" stroke-miterlimit="10" x1="127.48" y1="213.41" x2="132.45" y2="208.43"/>
	
		<line clip-path="url(#SVGID_2_)" fill="none" stroke="#FF0000" stroke-width="0.71" stroke-linecap="round" stroke-linejoin="round" stroke-miterlimit="10" x1="127.48" y1="208.43" x2="132.45" y2="213.41"/>
	
		<line clip-path="url(#SVGID_2_)" fill="none" stroke="#FF0000" stroke-width="0.71" stroke-linecap="round" stroke-linejoin="round" stroke-miterlimit="10" x1="126.45" y1="210.92" x2="133.49" y2="210.92"/>
	
		<line clip-path="url(#SVGID_2_)" fill="none" stroke="#FF0000" stroke-width="0.71" stroke-linecap="round" stroke-linejoin="round" stroke-miterlimit="10" x1="129.97" y1="214.44" x2="129.97" y2="207.4"/>
	
		<line clip-path="url(#SVGID_2_)" fill="none" stroke="#FF0000" stroke-width="0.71" stroke-linecap="round" stroke-linejoin="round" stroke-miterlimit="10" x1="237.27" y1="217.72" x2="242.24" y2="212.75"/>
	
		<line clip-path="url(#SVGID_2_)" fill="none" stroke="#FF0000" stroke-width="0.71" stroke-linecap="round" stroke-linejoin="round" stroke-miterlimit="10" x1="237.27" y1="212.75" x2="242.24" y2="217.72"/>
	
		<line clip-path="url(#SVGID_2_)" fill="none" stroke="#FF0000" stroke-width="0.71" stroke-linecap="round" stroke-linejoin="round" stroke-miterlimit="10" x1="236.24" y1="215.23" x2="243.28" y2="215.23"/>
	
		<line clip-path="url(#SVGID_2_)" fill="none" stroke="#FF0000" stroke-width="0.71" stroke-linecap="round" stroke-linejoin="round" stroke-miterlimit="10" x1="239.76" y1="218.75" x2="239.76" y2="211.72"/>
	
		<rect x="64.09" y="44.68" clip-path="url(#SVGID_2_)" fill="none" stroke="#B3B3B3" stroke-width="1.07" stroke-linecap="round" stroke-linejoin="round" stroke-miterlimit="10" width="241.54" height="427.41"/>
</g>
<text transform="matrix(1 0 0 1 33.6511 410.6201)" fill="#4D4D4D" font-family="'ArialMT'" font-size="13px">2.65</text>
<text transform="matrix(1 0 0 1 33.6511 309.3701)" fill="#4D4D4D" font-family="'ArialMT'" font-size="13px">2.70</text>
<text transform="matrix(1 0 0 1 33.6511 208.1289)" fill="#4D4D4D" font-family="'ArialMT'" font-size="13px">2.75</text>
<text transform="matrix(1 0 0 1 33.6511 106.8789)" fill="#4D4D4D" font-family="'ArialMT'" font-size="13px">2.80</text>
<line fill="none" stroke="#B3B3B3" stroke-width="0.53" stroke-linejoin="round" stroke-miterlimit="10" x1="61.35" y1="407.39" x2="64.09" y2="407.39"/>
<line fill="none" stroke="#B3B3B3" stroke-width="0.53" stroke-linejoin="round" stroke-miterlimit="10" x1="61.35" y1="306.14" x2="64.09" y2="306.14"/>
<line fill="none" stroke="#B3B3B3" stroke-width="0.53" stroke-linejoin="round" stroke-miterlimit="10" x1="61.35" y1="204.89" x2="64.09" y2="204.89"/>
<line fill="none" stroke="#B3B3B3" stroke-width="0.53" stroke-linejoin="round" stroke-miterlimit="10" x1="61.35" y1="103.65" x2="64.09" y2="103.65"/>
<line fill="none" stroke="#B3B3B3" stroke-width="0.53" stroke-linejoin="round" stroke-miterlimit="10" x1="129.97" y1="474.83" x2="129.97" y2="472.09"/>
<line fill="none" stroke="#B3B3B3" stroke-width="0.53" stroke-linejoin="round" stroke-miterlimit="10" x1="239.76" y1="474.83" x2="239.76" y2="472.09"/>
<text transform="matrix(1 0 0 1 108.8875 488.1473)" fill="#4D4D4D" font-family="'Arial-BoldMT'" font-size="16px">CTRL</text>
<text transform="matrix(1 0 0 1 222.8994 488.1473)" fill="#4D4D4D" font-family="'Arial-BoldMT'" font-size="16px">CRC</text>
<text transform="matrix(-6.123234e-17 -1 1 -6.123234e-17 22.4916 296.4805)" font-family="'Arial-BoldMT'" font-size="16px">log10(chao1)</text>
<text transform="matrix(1 0 0 1 147.0771 126.7776)" font-family="'ArialMT'" font-size="18px">p = 0.012</text>
</svg>
